<svg width="24" height="24" viewBox="0 0 24 24" fill="none" xmlns="http://www.w3.org/2000/svg">
<path d="M9.02344 12.375C9.19266 13.732 10.2682 14.8076 11.6252 14.9768M15.0002 12C15.0002 10.3431 13.6571 9 12.0002 9C11.3163 9 10.6858 9.22886 10.1812 9.61417L14.1283 14.1146C14.6672 13.5722 15.0002 12.825 15.0002 12Z" stroke="#9E9E9E" stroke-width="1.8" stroke-linecap="round" stroke-linejoin="round"/>
<path d="M4.5 3.75L19.5 20.25" stroke="white" stroke-width="1.8" stroke-linecap="round" stroke-linejoin="round"/>
<path d="M4.5 3.75L19.5 20.25" stroke="#9E9E9E" stroke-width="1.8" stroke-linecap="round" stroke-linejoin="round"/>
<path d="M6.93698 6.43066C3.11486 8.36618 1.5 12 1.5 12C1.5 12 4.5 18.7493 12 18.7493C13.7572 18.7633 15.4926 18.3585 17.0623 17.5685" stroke="#9E9E9E" stroke-width="1.8" stroke-linecap="round" stroke-linejoin="round"/>
<path d="M20.0991 15.3359C21.7596 13.6615 22.4982 11.9998 22.4982 11.9998C22.4982 11.9998 19.4982 5.24902 11.9982 5.24902C11.6451 5.24902 11.302 5.26351 10.9688 5.2925" stroke="#9E9E9E" stroke-width="1.8" stroke-linecap="round" stroke-linejoin="round"/>
</svg>
