<svg width="28" height="26" viewBox="0 0 28 26" fill="none" xmlns="http://www.w3.org/2000/svg">
<path d="M26.1118 9.10098L26.3812 10.064C26.7857 9.95084 27.0763 9.59705 27.1088 9.17836C27.1413 8.75966 26.9087 8.36527 26.5266 8.19107L26.1118 9.10098ZM1.17479 18.2756C0.862682 18.7312 0.979035 19.3536 1.43467 19.6657C1.89031 19.9778 2.51269 19.8615 2.8248 19.4058L1.17479 18.2756ZM17.3257 3.99665C16.8231 3.76757 16.23 3.98924 16.001 4.49177C15.7719 4.9943 15.9935 5.58739 16.4961 5.81648L17.3257 3.99665ZM17.5233 15.4837C17.3713 16.0146 17.6785 16.5683 18.2095 16.7203C18.7404 16.8723 19.2941 16.5651 19.4461 16.0341L17.5233 15.4837ZM26.1538 8.10186C10.8438 7.45869 3.11876 15.4376 1.17479 18.2756L2.8248 19.4058C4.45499 17.026 11.5732 9.4911 26.0698 10.1001L26.1538 8.10186ZM16.4961 5.81648L25.697 10.0109L26.5266 8.19107L17.3257 3.99665L16.4961 5.81648ZM25.8423 8.13797C24.4315 8.53271 22.5931 9.617 21.0317 10.9065C19.4924 12.1778 17.9957 13.8337 17.5233 15.4837L19.4461 16.0341C19.7444 14.9922 20.8362 13.6619 22.3053 12.4486C23.7523 11.2535 25.3421 10.3547 26.3812 10.064L25.8423 8.13797Z" fill="#00ADFF"/>
</svg>
