<svg width="50" height="56" viewBox="0 0 50 56" fill="none" xmlns="http://www.w3.org/2000/svg">
<path d="M13.3786 3.05381L12.4045 3.27983C12.3096 2.87075 12.4804 2.44593 12.8321 2.2164C13.1837 1.98686 13.6414 2.00151 13.9776 2.25307L13.3786 3.05381ZM17.3039 29.3334C17.0541 29.826 16.4523 30.0228 15.9597 29.7729C15.4672 29.5231 15.2704 28.9213 15.5202 28.4287L17.3039 29.3334ZM22.0747 8.31017C22.5169 8.64099 22.6072 9.26768 22.2764 9.70992C21.9456 10.1522 21.3189 10.2425 20.8766 9.91165L22.0747 8.31017ZM11.9034 13.6521C11.5106 14.0404 10.8775 14.0367 10.4892 13.644C10.101 13.2512 10.1046 12.618 10.4974 12.2298L11.9034 13.6521ZM14.2349 2.53728C22.1499 15.6583 18.8599 26.2656 17.3039 29.3334L15.5202 28.4287C16.8251 25.8561 20.0169 15.9943 12.5224 3.57035L14.2349 2.53728ZM20.8766 9.91165L12.7796 3.85456L13.9776 2.25307L22.0747 8.31017L20.8766 9.91165ZM14.3528 2.82779C14.6839 4.2549 14.6154 6.38818 14.234 8.37692C13.8579 10.3376 13.1239 12.4456 11.9034 13.6521L10.4974 12.2298C11.2681 11.4679 11.9108 9.8714 12.2698 8.00014C12.6233 6.157 12.6484 4.33095 12.4045 3.27983L14.3528 2.82779Z" fill="#00ADFF"/>
<path d="M47.2669 44.0084L46.9241 44.9478C47.3186 45.0918 47.7611 44.9739 48.0317 44.6528C48.3022 44.3316 48.3433 43.8756 48.1345 43.5112L47.2669 44.0084ZM21.6596 36.9168C21.1403 37.1049 20.8718 37.6783 21.0599 38.1976C21.248 38.7169 21.8214 38.9853 22.3407 38.7973L21.6596 36.9168ZM43.107 34.7378C42.8324 34.2586 42.2213 34.0928 41.7421 34.3673C41.2629 34.6419 41.0971 35.253 41.3717 35.7322L43.107 34.7378ZM36.5679 44.184C36.1347 44.5266 36.0614 45.1555 36.404 45.5887C36.7466 46.0218 37.3755 46.0952 37.8087 45.7526L36.5679 44.184ZM47.8837 43.2213C35.8225 33.7696 24.8939 35.7453 21.6596 36.9168L22.3407 38.7973C25.0529 37.8149 35.2296 35.8459 46.6501 44.7955L47.8837 43.2213ZM41.3717 35.7322L46.3993 44.5056L48.1345 43.5112L43.107 34.7378L41.3717 35.7322ZM47.6097 43.069C46.2334 42.5668 44.1077 42.3753 42.0873 42.5122C40.0955 42.6471 37.9139 43.1192 36.5679 44.184L37.8087 45.7526C38.6587 45.0802 40.3214 44.6364 42.2225 44.5076C44.0949 44.3808 45.9105 44.578 46.9241 44.9478L47.6097 43.069Z" fill="#00ADFF"/>
</svg>
