<svg width="163" height="37" viewBox="0 0 163 37" fill="none" xmlns="http://www.w3.org/2000/svg">
<path d="M68.4323 9.14819C69.7779 10.3902 70.4506 12.2015 70.4506 14.6338C70.4506 17.0143 69.7779 18.8256 68.4323 20.0676C67.0868 21.3097 65.1203 21.9307 62.5327 21.9307H58.0822V29.331H53.5798V7.28516H62.5327C65.1203 7.28516 67.0868 7.90617 68.4323 9.14819ZM64.9133 17.0143C65.4308 16.4968 65.7413 15.7206 65.7413 14.6338C65.7413 13.547 65.4825 12.7708 64.9133 12.305C64.3958 11.8392 63.4643 11.5805 62.2222 11.5805H58.0304V17.7388H62.2222C63.516 17.7388 64.3958 17.4801 64.9133 17.0143Z" fill="white"/>
<path d="M83.6468 13.1855V17.4291C82.9741 17.3256 82.3531 17.2221 81.7321 17.2221C80.3865 17.2221 79.455 17.5843 78.834 18.2571C78.213 18.9299 77.9025 20.0166 77.9025 21.5692V29.3318H73.5554V13.289H77.799V15.9283C78.1612 14.9968 78.7823 14.2723 79.5585 13.7548C80.3348 13.2373 81.2663 12.9785 82.3013 12.9785C82.8188 12.9785 83.2846 13.0303 83.6468 13.1855Z" fill="white"/>
<path d="M86.6487 10.183C86.1829 9.66548 85.9242 9.04447 85.9242 8.2682C85.9242 7.49194 86.1829 6.81918 86.6487 6.35342C87.1145 5.83591 87.7872 5.62891 88.6152 5.62891C89.4433 5.62891 90.0643 5.88766 90.5818 6.35342C91.0475 6.87093 91.3063 7.49194 91.3063 8.2682C91.3063 9.04447 91.0475 9.71723 90.5818 10.183C90.116 10.7005 89.4433 10.9075 88.6152 10.9075C87.7872 10.9075 87.1662 10.6487 86.6487 10.183ZM86.4417 13.288H90.7888V29.3308H86.4417V13.288Z" fill="white"/>
<path d="M117.647 14.4265C118.579 15.4616 119.045 16.9623 119.045 18.8254V29.3308H114.698V19.9121C114.698 18.8771 114.491 18.1009 114.128 17.6351C113.766 17.1176 113.145 16.9106 112.265 16.9106C111.282 16.9106 110.506 17.2211 109.988 17.7904C109.471 18.3596 109.16 19.1876 109.16 20.2744V29.3826H104.813V19.9121C104.813 18.8771 104.606 18.1009 104.244 17.6351C103.83 17.1176 103.209 16.9106 102.381 16.9106C101.449 16.9106 100.673 17.2211 100.104 17.7904C99.5347 18.3596 99.2759 19.1876 99.2759 20.2226V29.3308H94.9288V13.288H99.1724V15.6168C99.5864 14.7888 100.259 14.116 101.087 13.5985C101.915 13.081 102.898 12.8223 103.985 12.8223C105.072 12.8223 106.055 13.081 106.832 13.5985C107.66 14.116 108.229 14.8406 108.591 15.8238C109.005 14.8923 109.678 14.1678 110.609 13.6503C111.541 13.1328 112.576 12.8223 113.766 12.8223C115.474 12.8223 116.768 13.3398 117.647 14.4265Z" fill="white"/>
<path d="M124.893 29.0203C123.651 28.5028 122.615 27.83 121.839 26.8985L123.961 23.9487C124.582 24.5697 125.358 25.0872 126.29 25.4495C127.221 25.8117 128.153 26.0187 129.084 26.0187C129.861 26.0187 130.43 25.9152 130.844 25.6565C131.258 25.3977 131.465 25.0872 131.465 24.6732C131.465 24.311 131.31 24.0005 130.999 23.7935C130.689 23.5347 130.223 23.3795 129.602 23.2242L127.014 22.6032C125.41 22.2409 124.272 21.6717 123.547 20.8954C122.823 20.1191 122.46 19.1876 122.46 18.0491C122.46 16.4966 123.03 15.2546 124.22 14.2713C125.41 13.3398 127.014 12.8223 129.033 12.8223C130.378 12.8223 131.62 13.0293 132.759 13.495C133.897 13.9608 134.829 14.53 135.553 15.3063L133.431 18.2561C131.982 17.1693 130.533 16.6001 128.929 16.6001C128.205 16.6001 127.635 16.7036 127.273 16.9623C126.911 17.1693 126.704 17.5316 126.704 17.8939C126.704 18.2044 126.859 18.4631 127.118 18.6701C127.377 18.8771 127.842 19.0841 128.515 19.1876L131.206 19.8604C132.81 20.2226 133.949 20.7919 134.673 21.5682C135.398 22.3444 135.708 23.2759 135.708 24.4662C135.708 26.1222 135.139 27.416 133.949 28.3475C132.759 29.2791 131.103 29.7966 129.033 29.7966C127.532 29.7966 126.135 29.5378 124.893 29.0203Z" fill="white"/>
<path d="M141.919 28.658C140.677 27.8818 139.693 26.8985 139.02 25.6047C138.348 24.311 137.985 22.9137 137.985 21.3094C137.985 19.7569 138.348 18.3079 139.02 17.0141C139.693 15.7203 140.677 14.6853 141.919 13.9608C143.161 13.2363 144.61 12.8223 146.266 12.8223C147.922 12.8223 149.371 13.1845 150.664 13.9608C151.958 14.6853 152.89 15.7203 153.614 17.0141C154.287 18.3079 154.649 19.7569 154.649 21.3094C154.649 22.8619 154.287 24.311 153.614 25.6047C152.941 26.8985 151.958 27.9335 150.664 28.658C149.371 29.3826 147.922 29.7966 146.266 29.7966C144.61 29.7966 143.161 29.3826 141.919 28.658ZM149.112 24.518C149.836 23.69 150.147 22.6549 150.147 21.3094C150.147 19.9639 149.785 18.8771 149.112 18.1009C148.387 17.2728 147.456 16.9106 146.266 16.9106C145.075 16.9106 144.092 17.3246 143.419 18.1009C142.695 18.9289 142.384 19.9639 142.384 21.3094C142.384 22.6549 142.747 23.7417 143.419 24.518C144.144 25.346 145.075 25.7082 146.266 25.7082C147.456 25.76 148.439 25.346 149.112 24.518Z" fill="white"/>
<path d="M157.806 6.30273H162.153V29.3319H157.806V6.30273Z" fill="white"/>
<path d="M21.7182 10.4537L17.0607 25.9272L14.7836 33.5863C14.5249 34.4144 13.9556 35.1906 13.2828 35.7081C13.1276 35.8116 12.9723 35.9151 12.8171 36.0186C12.1961 36.4326 11.4716 36.6396 10.747 36.6396H2.31165C0.603868 36.6396 -0.379399 35.2424 0.13811 33.5346L7.07273 10.4019C7.59024 8.69415 9.40152 7.29688 11.1093 7.29688H19.5447C21.2525 7.34863 22.2357 8.7459 21.7182 10.4537Z" fill="#00ADFF"/>
<path opacity="0.8" d="M17.0608 25.9277L14.7837 33.5869C14.525 34.4149 13.9557 35.1911 13.283 35.7087L8.72888 29.3433L17.0608 25.9277Z" fill="#0091FF"/>
<path d="M42.4705 14.6455C41.2802 18.6821 38.5374 22.3564 35.0701 24.9957C31.6028 27.635 27.4627 29.291 23.4261 29.291H8.72888L9.6604 26.186L12.4032 17.0778L16.595 3.10505C17.1125 1.39727 18.9238 0 20.6316 0H32.2238C40.2969 0 44.9028 6.57237 42.4705 14.6455Z" fill="#FFAD00"/>
</svg>
