<svg width="839" height="732" viewBox="0 0 839 732" fill="none" xmlns="http://www.w3.org/2000/svg">
<g clip-path="url(#clip0)">
<path d="M775.5 470.7C775.401 473 775.3 475.3 775.1 477.7L774.5 484.7C774.1 489.3 773.401 494 772.701 498.6C772.701 498.9 772.6 499.1 772.6 499.4C772.3 501.4 771.901 503.5 771.5 505.5L770.201 512.4C769.701 514.7 769.2 517 768.6 519.3C768 521.6 767.601 523.8 766.901 526.1C764.5 535.1 761.6 544.1 758.3 552.7L755.701 559.2L752.901 565.6C751.101 569.9 749 574 746.901 578.1C746.401 579.1 745.9 580.2 745.3 581.2L743.701 584.2C742.601 586.2 741.5 588.2 740.3 590.2C738 594.1 735.5 598 733.1 601.8L729.701 606.7L729.201 607.4C727.901 609.3 726.6 611.1 725.3 612.9L721.201 618.3C720.5 619.2 719.901 620.1 719.201 621L717.1 623.6C709 633.5 700.3 642.6 691.201 650.9V735.5H174.1L173.4 730.5L172.2 719.7C171.8 716.1 171.5 712.5 171.2 708.9C170.8 705.3 170.6 701.7 170.3 698.2L169.9 692.9L169.6 687.6C169.4 684.1 169.1 680.5 169 677L168.5 666.4C168 652.3 167.9 638.2 168.1 624.2C168.7 568.1 174 512.5 184.5 456.8C189.7 429 196.6 401.1 205.6 373.3L209.1 362.8L211.2 357C211.9 355.1 212.6 353.2 213.4 351.3C215 347.5 216.5 343.7 218.3 340L220.9 334.4L223.7 328.9C227.4 321.5 231.6 314.4 235.9 307.4C237 305.6 238.1 303.9 239.3 302.2C240.4 300.5 241.5 298.7 242.8 297.1C245.2 293.8 247.5 290.3 250.1 287.1C260.2 274 271.4 261.7 283.7 250.6C296 239.5 309.3 229.4 323.4 220.6C342.6 208.7 363.4 199.1 385 192.2C394.9 189 404.9 186.4 415.1 184.4C415.5 184.3 415.8 184.3 416.2 184.2L419.3 183.6L422.4 183.1L428.6 182.1C432.801 181.5 436.9 181 441.1 180.5L447.4 180C449.5 179.8 451.6 179.6 453.701 179.6C457.901 179.4 462.1 179.2 466.3 179.2C472.9 179.1 479.6 179.2 486.201 179.4C494.401 179.7 502.6 180.3 510.8 181.2C512.7 181.4 514.6 181.6 516.5 181.9C550 186.1 583.401 195.2 615.201 209.7C647 224.2 677 244.5 702.3 270.6C714.9 283.6 726.3 298.1 736 313.7C745.701 329.3 753.8 346 760 363.3C761.5 367.7 763 372 764.3 376.4L766.201 383C766.8 385.2 767.5 387.4 767.901 389.7L769.401 396.4C769.901 398.6 770.5 400.9 770.8 403.1L772 409.7C772.401 411.9 772.8 414.1 773 416.4C775.5 433.7 776.401 452.2 775.5 470.7Z" fill="#FFAD00"/>
<path d="M691.301 650.7V735.3H418.301C478.601 716.4 526.001 687.7 563.301 655.2L594.601 706.7L600.301 704.9L605.901 703C609.601 701.6 613.301 700.1 617.001 698.6C620.701 697 624.301 695.3 628.001 693.6L638.801 688.1C642.401 686.1 645.901 684.1 649.501 682L654.801 678.7C656.601 677.6 658.301 676.5 660.001 675.3C666.901 670.6 673.801 665.7 680.301 660.2C684.001 657.2 687.701 654 691.301 650.7Z" fill="#061238"/>
<path d="M540.8 614.7C560 599.5 578 582.7 592.5 563C599.8 553.2 606.2 542.8 611.4 531.7C612.7 528.9 613.9 526.2 615.1 523.3C615.7 521.9 616.2 520.5 616.7 519L618.3 514.7C619.4 511.8 620.2 508.9 621 506C621.8 503.1 622.5 500.1 623.1 497.1C623.5 495.6 623.7 494.1 624 492.6C624.3 491.1 624.6 489.6 624.8 488.1C625.2 485.1 625.7 482.1 625.9 479C626.5 472.9 626.8 466.8 626.7 460.7C626.7 459.2 626.7 457.7 626.6 456.1L626.4 451.5C626.2 448.5 625.9 445.4 625.6 442.4C624.9 436.3 623.8 430.3 622.7 424.3C617.7 400.5 608.5 377.4 595.2 356.8C595.1 356.6 595.1 356.4 595.3 356.3C595.5 356.2 595.6 356.2 595.8 356.4C603.6 366 610 376.7 615.5 387.9C618.2 393.5 620.5 399.3 622.7 405.2C623.2 406.7 623.8 408.2 624.2 409.7L624.9 411.9L625.2 412.9L625.5 413.9C625.6 414.3 625.8 414.7 625.9 415.2L626.2 416.5L626.8 418.7L627.4 420.8L627.7 422L627.9 422.7L628 423.4C628.7 426.4 629.4 429.4 630 432.4C630.3 433.9 630.6 435.5 630.9 437.1L631.1 438.3L631.3 439.4L631.6 441.7C632 444.8 632.4 448 632.7 451.1L633 455.7C633.1 456.4 633.1 457.3 633.1 458.1L633.2 460.5C633.2 462.1 633.4 463.7 633.3 465.3L633.2 470.1C633.1 473.4 632.8 476.5 632.6 479.6L632.4 481.8L632.1 484.2L631.5 489.1C631.3 490.7 631 492.3 630.7 493.8L630.3 496.2C630.2 497 630 497.8 629.8 498.5C629.1 501.5 628.4 504.6 627.5 507.7C627.3 508.5 627 509.3 626.8 510L626.1 512.3C625.7 513.8 625.1 515.3 624.6 516.7L622.9 521.1C622.3 522.6 621.8 524.1 621.2 525.6C620 528.6 618.7 531.5 617.3 534.3C614.4 540 611.3 545.5 607.9 550.8C606.2 553.4 604.4 556.1 602.6 558.6C600.7 561.1 598.8 563.6 596.9 566.1C594.9 568.5 592.9 570.9 590.9 573.3C589.9 574.4 588.8 575.7 587.8 576.8L584.6 580.1C582.4 582.3 580.2 584.5 577.9 586.7L574.5 589.9C573.4 591 572.2 592 571 593C568.6 595 566.3 597 563.8 598.9L560.2 601.8C559 602.7 557.7 603.6 556.5 604.6C554 606.4 551.5 608.2 549 610C546.5 611.8 543.9 613.4 541.3 615.1C541.1 615.2 540.9 615.2 540.8 615C540.6 615 540.6 614.8 540.8 614.7Z" fill="#FF7F02"/>
<path d="M772.601 499.3C772.301 501.3 771.901 503.4 771.501 505.4L770.201 512.3C769.701 514.6 769.201 516.9 768.601 519.2C768.001 521.5 767.601 523.7 766.901 526C764.501 535 761.601 544 758.301 552.6L755.701 559.1L752.901 565.5C751.101 569.8 749.001 573.9 746.901 578C746.401 579 745.901 580.1 745.301 581.1L743.701 584.1C742.601 586.1 741.501 588.1 740.301 590.1C738.001 594 735.501 597.9 733.101 601.7L729.701 606.6C726.401 606.7 723.301 606.1 720.301 604.8C703.001 597.1 699.801 566.7 713.201 537C726.501 507.3 751.301 489.4 768.601 497.2C770.101 497.6 771.401 498.4 772.601 499.3Z" fill="#061238"/>
<path d="M544.901 624.801C540.001 625.101 535.101 625.501 530.201 626.001C524.701 626.601 519.301 627.401 513.801 628.601C511.201 629.201 509.101 631.201 508.401 633.901C507.401 637.801 509.801 641.701 513.601 642.601C519.001 643.901 524.501 644.801 529.901 645.601C530.101 645.601 530.401 645.701 530.601 645.701C528.901 646.701 527.201 647.801 525.501 648.901C520.901 651.801 516.301 654.801 511.801 657.901C507.301 661.001 502.801 664.101 498.401 667.501C496.101 669.301 495.001 672.401 496.001 675.401C497.201 679.101 501.301 681.101 505.001 679.901C510.201 678.101 515.401 676.201 520.401 674.101C522.201 673.401 524.001 672.601 525.901 671.801L504.601 689.501C502.101 691.501 501.301 695.001 502.801 698.001C504.501 701.501 508.701 702.901 512.201 701.201L537.701 688.701C537.301 689.001 537.001 689.401 536.601 689.701C534.501 691.701 532.401 693.801 530.301 695.801C528.201 697.801 526.101 699.901 524.101 702.001L523.601 702.501C521.201 705.101 521.001 709.101 523.401 711.901C525.901 714.801 530.301 715.101 533.301 712.601L556.301 692.501C555.201 693.901 554.201 695.301 553.001 696.701C551.401 698.601 549.801 700.501 548.101 702.401C547.301 703.301 546.401 704.201 545.601 705.101C544.801 706.001 543.801 706.901 543.101 707.601L543.001 707.701C540.401 710.201 540.201 714.401 542.601 717.201C545.101 720.201 549.501 720.601 552.501 718.101C553.701 717.101 554.701 716.201 555.701 715.301C556.701 714.401 557.701 713.401 558.701 712.501C560.701 710.601 562.601 708.701 564.501 706.701C568.301 702.701 571.901 698.601 575.301 694.201C577.601 691.401 579.701 688.401 581.701 685.301L544.901 624.801Z" fill="#D97D56"/>
<path d="M409.3 421.7C358 359.6 351.3 281.1 384.9 191.8C394.8 188.6 404.8 186 415 184C415.4 183.9 415.7 183.9 416.1 183.8L419.2 183.2L422.3 182.7L428.5 181.7C432.7 181.1 436.8 180.6 441 180.1L447.3 179.6C449.4 179.4 451.5 179.2 453.6 179.2C457.8 179 462 178.8 466.2 178.8C472.8 178.7 479.5 178.8 486.1 179C494.3 179.3 502.5 179.9 510.7 180.8C520.2 267 469.7 365.4 409.3 421.7Z" fill="#061238"/>
<path d="M467.5 292.5C454.3 324.9 432.8 381.2 410.3 407.2C378.6 353.2 381.3 264 415 183.9C415.4 183.8 415.7 183.8 416.1 183.7L419.2 183.1L422.3 182.6L428.5 181.6C432.7 181 436.8 180.5 441 180L447.3 179.5C449.4 179.3 451.5 179.1 453.6 179.1C457.8 178.9 462 178.7 466.2 178.7C472.8 178.6 479.5 178.7 486.1 178.9C490.1 219.4 478.7 265.1 467.5 292.5Z" fill="#FEFEFE"/>
<path d="M837.799 301.6C836.899 311.2 828.699 318.4 818.999 318.5C805.299 318.6 790.299 322 778.499 325.4C773.599 326.8 768.399 325.1 765.299 321.1C764.999 320.7 758.699 314 754.9 311.5C754.699 311.4 754.4 311.2 754.199 311L753.4 310.6L751.799 309.7C750.699 309.1 749.5 308.7 748.4 308.1C747.1 307.7 745.899 307.1 744.499 306.7L742.4 306.1L741.299 305.8L740.199 305.6C734.199 304.2 727.199 303.4 719.4 303.2C703.9 302.8 685.9 304.9 666.999 307.8C647.999 310.7 628 314.3 606.9 316.9C596.4 318.2 585.599 319.3 574.599 319.8C563.599 320.3 552.3 320.2 540.9 319.1C529.5 318 518.099 316 506.899 312.6C500.799 310.7 494.699 308.5 488.899 305.8C484.199 303.7 479.699 301.3 475.299 298.7C472.499 297 469.699 295.2 467.099 293.4C460.5 288.8 454.499 283.7 448.899 278.2C441.099 270.5 434.399 262.2 428.399 253.7L428.099 253.3C427.799 252.9 427.599 252.5 427.399 252.1C426.499 251.9 425.599 251.7 424.599 251.5C421.499 250.8 420.099 247.2 421.799 244.6L433.599 226.5C435.399 223.7 439.4 223.7 441.2 226.5L452.999 244.6C453.699 245.7 453.899 247 453.599 248.1C457.399 251.2 461.299 254 465.299 256.6C469.099 259.1 473.099 261.3 477.099 263.3C480.899 265.2 484.799 266.8 488.799 268.2C492.799 269.6 496.899 270.8 501.099 271.7C513.599 274.4 526.6 274.8 539.7 273.4C557.1 271.6 574.599 266.7 592.299 260.7C609.999 254.7 627.899 247.4 646.599 240.3C665.299 233.2 684.9 226.2 706.699 221.3C717.599 218.9 729.099 217.1 741.199 216.5L743.499 216.4H745.799H750.4C753.5 216.4 756.599 216.6 759.799 216.7C762.999 217 766.099 217.2 769.299 217.7L774.099 218.4L776.499 218.8L778.9 219.3C791.699 221.9 804.499 226.5 816.299 232.7C819.499 234.4 822.599 236.2 825.599 238C828.899 240.1 831.299 243.2 832.4 247C836.5 261.2 839.899 279.6 837.799 301.6Z" fill="#00ADFF"/>
<path d="M405.086 530.396C412.769 528.819 417.718 521.312 416.141 513.63C414.564 505.947 407.058 500.998 399.375 502.575C391.693 504.152 386.743 511.659 388.32 519.341C389.898 527.023 397.404 531.973 405.086 530.396Z" fill="#061238"/>
<path d="M408.178 646.214C411.694 639.204 408.861 630.671 401.851 627.155C394.841 623.639 386.307 626.472 382.792 633.482C379.276 640.493 382.109 649.026 389.119 652.542C396.13 656.057 404.663 653.224 408.178 646.214Z" fill="#061238"/>
<path d="M506.399 85.3003C506.399 86.3003 506.399 87.3003 506.299 88.3003C503.999 86.1003 500.899 84.7003 497.499 84.7003C493.499 84.7003 489.899 86.6003 487.599 89.5003C487.499 88.8003 487.299 88.1003 487.099 87.3003C486.699 85.8003 486.199 84.4003 485.599 82.9003C484.399 80.0003 482.899 77.3003 481.099 74.8003C479.299 72.3003 477.199 70.0003 474.999 68.0003C472.699 65.9003 470.299 64.1003 467.599 62.4003L466.599 61.8003L465.599 61.2003C464.899 60.8003 464.199 60.4003 463.499 60.0003C462.099 59.3003 460.699 58.5003 459.199 57.9003C456.299 56.6003 453.199 55.5003 450.099 54.5003C443.799 52.5003 437.199 51.2003 430.399 50.3003C418.799 48.7003 410.699 38.0003 412.299 26.4003C413.899 14.8003 424.599 6.70029 436.199 8.20029C437.999 8.40029 439.799 8.90029 441.399 9.60029L441.999 9.90029C450.199 13.3003 458.299 17.3003 465.999 22.2003C469.799 24.7003 473.599 27.3003 477.199 30.3003C478.999 31.7003 480.799 33.4003 482.499 34.9003C483.399 35.7003 484.199 36.6003 484.999 37.4003L486.199 38.6003L487.399 39.9003C493.799 46.9003 499.099 55.1003 502.499 64.1003C504.199 68.6003 505.399 73.3003 505.999 78.0003C506.199 80.5003 506.399 82.9003 506.399 85.3003Z" fill="#1E1F21"/>
<path d="M506.298 88.3004C506.198 88.2004 505.998 88.0004 505.898 87.9004C505.998 88.0004 506.198 88.1004 506.298 88.3004Z" fill="black"/>
<path d="M489.899 129.101L479.499 174.001C475.699 190.401 461.099 202.001 444.299 202.001C432.099 202.001 422.699 192.001 422.699 180.501C422.699 178.501 422.999 176.501 423.599 174.501L430.199 151.501C434.099 153.201 438.499 154.201 443.299 154.201H456.999C471.699 154.201 485.799 143.201 489.899 129.101Z" fill="#C1714F"/>
<path d="M510.1 97.3006C510.1 104.301 504.5 109.901 497.5 109.901C496.1 109.901 494.7 109.701 493.5 109.201L493.1 111.701L490.7 125.701C488.1 141.301 472.9 154.101 457.1 154.101H443.4C423.9 154.101 410.6 138.301 413.8 119.101L425.7 49.1006C427.2 49.7006 428.7 50.1006 430.4 50.3006C437.2 51.2006 443.8 52.6006 450.1 54.5006C453.2 55.5006 456.3 56.6006 459.2 57.9006C460.7 58.5006 462.1 59.3006 463.5 60.0006C464.2 60.4006 464.9 60.8006 465.6 61.2006L466.6 61.8006L467.6 62.4006C470.3 64.0006 472.7 65.9006 475 68.0006C477.3 70.1006 479.3 72.4006 481.1 74.8006C482.9 77.3006 484.5 80.0006 485.6 82.9006C486.2 84.3006 486.7 85.8006 487.1 87.3006C487.3 88.0006 487.5 88.8006 487.6 89.5006C489.9 86.6006 493.5 84.7006 497.5 84.7006H497.6C497.8 84.7006 498 84.7006 498.2 84.7006C498.6 84.7006 499.1 84.8006 499.5 84.8006C499.9 84.9006 500.2 84.9006 500.6 85.0006C500.7 85.0006 500.7 85.0006 500.8 85.0006C501.2 85.1006 501.6 85.2006 501.9 85.4006C502.1 85.5006 502.3 85.5006 502.5 85.6006C503.3 85.9006 504 86.3006 504.7 86.8006C504.8 86.9006 505 87.0006 505.1 87.1006C505.4 87.3006 505.6 87.5006 505.9 87.7006C506 87.8006 506.2 88.0006 506.3 88.1006C508.6 90.6006 510.1 93.8006 510.1 97.3006Z" fill="#D97D56"/>
<path d="M485.799 102.2C486.399 106.5 489.199 110 492.999 111.8L493.399 109.3C489.999 108.1 487.199 105.5 485.799 102.2Z" fill="#C1714F"/>
<path d="M455.199 119.5C454.099 120.8 452.699 122.1 451.399 123.2C449.999 124.3 448.499 125.2 446.899 126C446.099 126.4 445.299 126.7 444.499 127.1C443.699 127.4 442.899 127.7 441.999 127.9C440.299 128.4 438.599 128.5 436.899 128.6H436.799C436.799 128.6 436.799 128.6 436.699 128.6C435.599 128.7 434.799 129.7 434.899 130.8C434.999 131.9 435.999 132.7 437.099 132.6C439.099 132.4 441.099 132.1 442.999 131.5C443.999 131.3 444.899 130.8 445.799 130.5C446.699 130.1 447.599 129.7 448.499 129.2C450.199 128.2 451.899 127.1 453.399 125.8C454.899 124.5 456.299 123.2 457.499 121.5C457.999 120.9 457.899 120 457.299 119.4C456.699 118.8 455.699 118.9 455.199 119.5Z" fill="#C1714F"/>
<path d="M282.5 251.2C270.6 262 259.8 274 250 286.7C247.4 289.9 245.1 293.4 242.7 296.7C241.5 298.4 240.4 300.1 239.2 301.8C238.1 303.5 236.9 305.2 235.8 307C231.5 314 227.3 321.1 223.6 328.5L220.8 334L218.2 339.6C216.4 343.3 214.9 347.1 213.3 350.9C212.5 352.8 211.8 354.7 211.1 356.6L209 362.4L205.5 372.9C196.5 400.7 189.6 428.5 184.4 456.4C182.9 464.5 181.4 472.7 180.1 480.8C179.7 480.8 179.4 480.8 179 480.8C174.7 480.8 170.5 480.8 166 480.6L159.4 480.3C157.2 480.2 154.8 479.9 152.6 479.8L149.2 479.5L147.5 479.3L145.7 479.1L138.7 478.2C136.4 477.9 133.9 477.4 131.5 477L127.9 476.3C126.7 476.1 125.5 475.9 124.2 475.5C121.7 474.9 119.2 474.3 116.7 473.7L114.8 473.2L112.9 472.6L109 471.5L105.1 470.3C104.5 470.1 103.8 469.9 103.1 469.6L101.1 468.9C98.4 467.9 95.8 467 93.1 465.9C82.3 461.4 71.1 455.5 60.4 447.4C49.7 439.4 39.4 429.1 31.2 417.3C30 415.5 28.8 413.8 27.7 412C27.2 411.2 26.7 410.3 26.2 409.5C26.1 409.4 26.1 409.3 26 409.2C25.5 408.3 25 407.5 24.5 406.6C19.7 397.9 16 388.8 13.5 380C13 378.4 12.6 376.8 12.2 375.3C11.8 373.7 11.5 372.2 11.2 370.7L10.3 366.1C10.2 365.3 10 364.5 9.9 363.8L9.6 361.6C9.2 358.6 8.8 355.6 8.5 352.7C8.3 349.8 8.2 347 8.1 344.1C8.1 343.4 8 342.7 8 342V340L8.1 335.9L8.2 331.8L8.5 327.9C8.7 325.3 8.9 322.7 9.2 320.2L10.2 312.9C10.5 310.4 11 308.1 11.5 305.8L12.2 302.3C12.4 301.1 12.7 300 12.9 298.9C13 298.6 13.1 298.3 13.1 297.9C14.1 293.8 15.1 289.7 16.3 285.8L18.2 279.5L20.3 273.5C21.7 269.4 23.2 265.6 24.7 261.8C30.8 246.6 37.8 232.7 45.3 219.6C52.8 206.5 60.7 194.2 68.9 182.3C77.1 170.5 85.6 159.1 94.3 148.2C96.3 145.7 98.4 143.1 100.4 140.6L101.2 140.5C108.1 150.8 116.9 157 126.4 157C133.9 157 140.9 153.1 147 146.4C151.8 151.6 158.8 154.5 166.2 153.8L235.2 147.1C236.3 148 237.6 148.7 238.9 149.4C236.7 152.3 234.5 155.3 232.4 158.2C230.6 160.7 228.8 163.2 227.1 165.7C225.3 168.2 223.5 170.7 221.8 173.2C218.4 178.2 214.9 183.2 211.6 188.2C208.2 193.2 205 198.3 201.8 203.3C200.2 205.8 198.7 208.4 197.1 210.9L194.8 214.7L192.6 218.5C186.6 228.6 181 238.8 175.9 248.9C170.8 259 166.2 269.1 162.4 279C162 280 161.6 281.1 161.2 282.1C160.6 283.8 160.1 285.6 159.9 287.3C159.7 288.4 159.7 289.6 159.7 290.7C159.7 298.7 163.6 306.5 170.6 311.2C176.5 315.2 183.9 316.5 190.8 314.7C193.4 314 196.1 313.3 198.8 312.5C208.3 309.8 223.7 298.1 231.9 291.4C250.5 276 267.6 262.5 282.5 251.2Z" fill="#FFAD00"/>
<path d="M282.5 251.2C270.6 262 259.8 274 250 286.7C247.4 289.9 245.1 293.4 242.7 296.7C241.5 298.4 240.4 300.1 239.2 301.8C238.1 303.5 236.9 305.2 235.8 307C231.5 314 227.3 321.1 223.6 328.5L220.8 334L218.2 339.6C216.4 343.3 214.9 347.1 213.3 350.9C212.5 352.8 211.8 354.7 211.1 356.6L209 362.4L205.5 372.9C196.5 400.7 189.6 428.5 184.4 456.4C182.9 464.5 181.4 472.7 180.1 480.8C179.7 480.8 179.4 480.8 179 480.8C174.7 480.8 170.5 480.8 166 480.6L159.4 480.3C157.2 480.2 154.8 479.9 152.6 479.8L149.2 479.5L147.5 479.3L145.7 479.1L138.7 478.2C136.4 477.9 133.9 477.4 131.5 477L127.9 476.3C126.7 476.1 125.5 475.9 124.2 475.5C121.7 474.9 119.2 474.3 116.7 473.7L114.8 473.2L112.9 472.6L109 471.5L105.1 470.3C104.5 470.1 103.8 469.9 103.1 469.6L101.1 468.9C98.4 467.9 95.8 467 93.1 465.9C82.3 461.4 71.1 455.5 60.4 447.4C49.7 439.4 39.4 429.1 31.2 417.3C28.8 413.8 26.5 410.2 24.5 406.5C63.2 458.7 116.7 425.5 159.6 287.2C159.4 288.3 159.4 289.5 159.4 290.6C159.4 298.6 163.3 306.4 170.3 311.1C176.2 315.1 183.6 316.4 190.5 314.6C193.1 313.9 195.8 313.2 198.5 312.4C208 309.7 223.4 298 231.6 291.3C250.5 276 267.6 262.5 282.5 251.2Z" fill="#FF7F02"/>
<path d="M59.2996 353.2C59.2996 384.2 45.3996 409.6 27.7996 412C26.6996 410.2 25.5996 408.4 24.5996 406.6C19.7996 397.9 16.0996 388.8 13.5996 380C13.0996 378.4 12.6996 376.8 12.2996 375.3C11.8996 373.7 11.5996 372.2 11.2996 370.7L10.3996 366.1C10.2996 365.3 10.0996 364.5 9.99961 363.8L9.69961 361.6C9.29961 358.6 8.89961 355.6 8.59961 352.7C8.39961 349.8 8.29961 347 8.19961 344.1C8.19961 343.4 8.09961 342.7 8.09961 342V340L8.19961 335.9L8.29961 331.8L8.59961 327.9C8.79961 325.3 8.99961 322.7 9.29961 320.2L10.2996 312.9C10.5996 310.4 11.0996 308.1 11.5996 305.8L12.2996 302.3C12.4996 301.1 12.7996 300 12.9996 298.9C13.0996 298.6 13.1996 298.3 13.1996 297.9C16.8996 295.5 20.8996 294.2 25.0996 294.2C43.9996 294.2 59.2996 320.6 59.2996 353.2Z" fill="#FFAD00"/>
<path d="M369.1 93.7004C369 99.7004 366.9 105.7 363.3 110.4C361.5 112.7 359.3 114.7 356.9 116.3C354.5 117.8 351.8 118.9 349.1 119.5C347.3 119.8 345.6 118.8 345 117.2C353.4 114.8 360.3 108 362.2 98.8004C364.8 86.2004 357.2 73.9004 345.1 70.5004C345.3 70.0004 345.5 69.6004 345.9 69.2004C346.7 68.3004 347.9 68.0004 349 68.1004C354.6 68.8004 360 72.2004 363.7 76.9004C367.2 81.6004 369.2 87.7004 369.1 93.7004Z" fill="#327240"/>
<path d="M362.1 98.7998C361.8 100.2 361.4 101.6 360.9 102.8C360.6 103.6 360.3 104.3 359.9 105C359.7 105.4 359.5 105.8 359.3 106.1C359.1 106.5 358.9 106.8 358.6 107.2C358.4 107.5 358.1 107.9 357.9 108.2C355.9 111 353.3 113.2 350.3 114.9C347.4 116.6 344.1 117.6 340.6 117.9L296.5 122C292.1 133.9 281.1 142.5 268.1 143.8L166 153.7C155.1 154.8 145 148.1 141.8 137.6C141.7 137.3 141.6 136.9 141.5 136.6L65.1004 143.8C67.6004 140.3 69.9004 136.3 71.9004 131.8C78.1004 118 81.9004 100.1 81.9004 80.3998C81.9004 50.1998 73.0004 23.8998 59.9004 10.7998L146.7 28.9998C146.7 28.9998 146.7 28.9998 146.7 28.8998C147 28.4998 147.4 28.0998 147.7 27.6998C148.1 27.2998 148.4 26.8998 148.8 26.4998C149.1 26.1998 149.5 25.7998 149.8 25.4998C149.9 25.3998 150 25.2998 150.1 25.2998C150.5 24.9998 150.8 24.6998 151.2 24.3998C151.6 24.0998 152 23.6998 152.4 23.3998C152.8 23.0998 153.2 22.6998 153.7 22.3998C154.2 21.9998 154.7 21.6998 155.2 21.3998C155.5 21.1998 155.9 20.9998 156.2 20.7998C156.3 20.6998 156.4 20.6998 156.6 20.5998C156.9 20.3998 157.2 20.1998 157.5 20.0998C157.7 19.9998 157.8 19.8998 158 19.7998C158.4 19.5998 158.8 19.3998 159.1 19.1998C159.6 18.9998 160.1 18.7998 160.6 18.5998C160.6 18.5998 160.6 18.5998 160.7 18.5998C161.2 18.3998 161.6 18.1998 162.1 18.0998C162.5 17.8998 163 17.7998 163.4 17.5998C163.5 17.5998 163.7 17.4998 163.8 17.4998C164.2 17.3998 164.7 17.1998 165.1 17.0998C165.5 16.9998 165.8 16.8998 166.2 16.7998C166.4 16.6998 166.6 16.6998 166.8 16.6998C167.3 16.5998 167.7 16.4998 168.2 16.3998C168.4 16.3998 168.5 16.3998 168.7 16.2998C172.5 15.6998 176.4 15.6998 180.3 16.3998C180.6 16.4998 181 16.4998 181.3 16.5998L272.2 35.6998C284.9 38.3998 294.9 48.0998 298 60.4998L343.4 69.9998C344 70.0998 344.5 70.1998 345.1 70.3998C357.2 73.8998 364.8 86.1998 362.1 98.7998Z" fill="#98DDFE"/>
<path d="M362.1 98.7999C361.8 100.2 361.4 101.6 360.9 102.8C360.6 103.6 360.3 104.3 359.9 105C359.7 105.4 359.5 105.8 359.3 106.1C359.1 106.5 358.9 106.8 358.6 107.2C358.4 107.5 358.1 107.9 357.9 108.2C355.9 111 353.3 113.2 350.3 114.9C347.4 116.6 344.1 117.6 340.6 117.9L296.5 122C292.1 133.9 281.1 142.5 268.1 143.8L166 153.7C155.1 154.8 145 148.1 141.8 137.6C141.7 137.3 141.6 136.9 141.5 136.6L65.0996 143.8C67.5996 140.3 69.8996 136.3 71.8996 131.8L138.3 125.5L153.1 124.1C157.6 123.7 161.5 120.8 163.3 116.6C172 95.6999 176.9 74.8999 175.6 51.4999C175 41.6999 168 33.3999 158.3 31.3999L146.6 28.9999C146.9 28.5999 147.3 28.1999 147.6 27.7999C148 27.3999 148.3 26.9999 148.7 26.5999C149 26.2999 149.4 25.8999 149.7 25.5999C149.8 25.4999 149.9 25.3999 150 25.3999C150.4 25.0999 150.7 24.7999 151.1 24.4999C151.5 24.1999 151.9 23.7999 152.3 23.4999C152.7 23.1999 153.1 22.7999 153.6 22.4999C154.1 22.0999 154.6 21.7999 155.1 21.4999C155.4 21.2999 155.8 21.0999 156.1 20.8999C156.2 20.7999 156.3 20.7999 156.5 20.6999C156.8 20.4999 157.1 20.2999 157.4 20.1999C157.6 20.0999 157.7 19.9999 157.9 19.8999C158.3 19.6999 158.7 19.4999 159 19.2999C159.5 19.0999 160 18.8999 160.5 18.6999C160.5 18.6999 160.5 18.6999 160.6 18.6999C161.1 18.4999 161.5 18.2999 162 18.1999C162.4 17.9999 162.9 17.8999 163.3 17.6999C163.4 17.6999 163.6 17.5999 163.7 17.5999C164.1 17.4999 164.6 17.2999 165 17.1999C165.4 17.0999 165.7 16.9999 166.1 16.8999C166.3 16.7999 166.5 16.7999 166.7 16.7999C167.2 16.6999 167.6 16.5999 168.1 16.4999C168.3 16.4999 168.4 16.4999 168.6 16.3999C174.9 15.5999 179.6 19.0999 181.4 26.6999C189.1 59.2999 186.9 83.6999 171.5 122.2C169.8 126.4 173.6 130.9 178.1 130.5L293.8 119.7C295.8 119.5 297.4 118.1 297.9 116.2C298.2 114.8 298.6 113.2 298.7 111.7C298.7 111.6 298.7 111.4 298.7 111.3C298.7 111.1 298.8 111 298.8 110.8C299.1 109 299.5 107.2 299.8 105.4C300.1 103.3 300.4 101.2 300.6 99.0999C301 94.8999 301.1 90.6999 301.1 86.4999C301.1 82.2999 300.8 78.0999 300.3 73.8999C299.8 69.6999 299.1 65.5999 297.9 61.4999C297.9 61.3999 297.9 61.2999 298 61.2999C298.1 61.2999 298.1 61.2999 298.2 61.3999C300.4 65.1999 301.8 69.3999 302.7 73.5999L303.1 75.1999C303.2 75.6999 303.3 76.2999 303.4 76.7999C303.6 77.8999 303.7 78.8999 303.8 79.9999C303.9 81.0999 304 82.0999 304.1 83.1999L304.2 86.3999C304.2 87.4999 304.1 88.5999 304.1 89.5999C304.1 90.6999 304.1 91.7999 303.9 92.7999L303.5 95.9999C303.4 97.0999 303.2 98.0999 302.9 99.1999C302.6 101.3 301.9 103.4 301.4 105.5C300.9 107.3 300.2 109 299.4 110.6C315.5 109.7 338.7 108.8 354.6 108.2C369.8 81.3999 344.9 70.2999 344.9 70.2999C357.2 73.8999 364.8 86.1999 362.1 98.7999Z" fill="#002967"/>
<path d="M41 159C63.6437 159 82 123.854 82 80.5C82 37.1456 63.6437 2 41 2C18.3563 2 0 37.1456 0 80.5C0 123.854 18.3563 159 41 159Z" fill="#004B90"/>
<path d="M75 80.5C75 100.4 71 118.9 63.8 132.8C60 140 55.7 145.3 51 148.6C47.7 150.9 44.4 152.1 41 152.1C32.9 152.1 24.6 145.1 18.2 132.9C11 118.9 7 100.4 7 80.5C7 60.6 11 42.1 18.2 28.2C24.6 16 32.9 9 41 9C44.4 9 47.7 10.2 51 12.5C55.6 15.7 60 21.1 63.8 28.3C71 42.1 75 60.6 75 80.5Z" fill="#002967"/>
<path d="M75 80.5C75 95.6 72.7 110 68.4 122.1C67.1 125.9 65.5 129.5 63.8 132.8C60 140 55.7 145.3 51 148.6C46.4 145.4 42 140 38.2 132.8C31.9 120.7 28 105 27.2 87.9C27.1 85.4 27 83 27 80.5C27 60.6 31 42.1 38.2 28.2C42 21.1 46.4 15.7 51 12.5C55.6 15.7 60 21.1 63.8 28.3C71 42.1 75 60.6 75 80.5Z" fill="#FFBF66"/>
<path d="M37.7006 45.9002C35.9006 53.3002 37.6006 60.0002 41.5006 61.0002C45.4006 61.9002 49.9006 56.7002 51.7006 49.3002C53.5006 41.9002 51.8006 35.2002 47.9006 34.2002C44.1006 33.3002 39.5006 38.6002 37.7006 45.9002Z" fill="#FEFEFE"/>
<path d="M68.3992 122.1C67.0992 125.9 65.4992 129.5 63.7992 132.8C59.9992 140 55.6992 145.3 50.9992 148.6C46.3992 145.4 41.9992 140 38.1992 132.8C31.8992 120.7 27.9992 105 27.1992 87.9004C33.5992 109.5 45.7992 124 59.7992 124C62.6992 124 65.5992 123.3 68.3992 122.1Z" fill="#FF7F02"/>
<path d="M454.401 91.7004C454.301 97.7004 452.201 103.7 448.601 108.4C446.801 110.7 444.601 112.7 442.201 114.3C439.801 115.8 437.101 116.9 434.401 117.5C432.601 117.8 430.901 116.8 430.301 115.2C438.701 112.8 445.601 106 447.501 96.8004C450.101 84.2004 442.501 71.9004 430.401 68.5004C430.501 68.0004 430.801 67.6004 431.201 67.2004C432.001 66.3004 433.201 66.0004 434.301 66.1004C440.001 66.8004 445.301 70.2004 449.001 74.9004C452.601 79.6004 454.601 85.7004 454.401 91.7004Z" fill="#1E1F21"/>
<path d="M447.501 96.7998C447.201 98.1998 446.801 99.5998 446.301 100.8C446.001 101.6 445.701 102.3 445.301 103C445.101 103.4 444.901 103.8 444.701 104.1C444.501 104.5 444.301 104.8 444.001 105.2C443.801 105.5 443.501 105.9 443.301 106.2C441.301 109 438.701 111.2 435.701 112.9C432.801 114.6 429.501 115.6 426.001 115.9L381.901 120C377.501 131.9 366.601 140.5 353.501 141.8L251.401 151.7C240.501 152.8 230.401 146.1 227.201 135.6C227.101 135.3 227.001 134.9 226.901 134.6L150.501 141.8C153.001 138.3 155.301 134.3 157.301 129.8C163.501 116 167.301 98.0998 167.301 78.3998C167.301 48.1998 158.401 21.8998 145.301 8.7998L232.001 26.9998C232.001 26.9998 232.001 26.9998 232.001 26.8998C232.301 26.4998 232.701 26.0998 233.001 25.6998C233.401 25.2998 233.701 24.8998 234.101 24.4998C234.401 24.1998 234.801 23.7998 235.101 23.4998C235.201 23.3998 235.301 23.2998 235.401 23.2998C235.801 22.9998 236.101 22.6998 236.501 22.3998C236.901 22.0998 237.301 21.6998 237.701 21.3998C238.101 21.0998 238.501 20.6998 239.001 20.3998C239.501 19.9998 240.001 19.6998 240.501 19.3998C240.801 19.1998 241.101 18.9998 241.501 18.7998C241.601 18.6998 241.701 18.6998 241.901 18.5998C242.201 18.3998 242.501 18.1998 242.801 18.0998C243.001 17.9998 243.101 17.8998 243.301 17.7998C243.701 17.5998 244.101 17.3998 244.401 17.1998C244.901 16.9998 245.401 16.7998 245.801 16.5998C245.801 16.5998 245.801 16.5998 245.901 16.5998C246.401 16.3998 246.801 16.1998 247.301 16.0998C247.701 15.8998 248.201 15.7998 248.601 15.6998C248.701 15.6998 248.901 15.5998 249.001 15.5998C249.401 15.4998 249.901 15.2998 250.301 15.1998C250.701 15.0998 251.001 14.9998 251.401 14.8998C251.601 14.7998 251.801 14.7998 252.001 14.7998C252.501 14.6998 252.901 14.5998 253.401 14.4998C253.601 14.4998 253.701 14.3998 253.901 14.3998C257.701 13.7998 261.601 13.7998 265.501 14.4998C265.801 14.5998 266.201 14.5998 266.501 14.6998L357.401 33.7998C370.101 36.4998 380.101 46.1998 383.201 58.5998L428.601 68.0998C429.201 68.1998 429.701 68.2998 430.301 68.4998C442.501 71.8998 450.101 84.1998 447.501 96.7998Z" fill="#98DDFE"/>
<path d="M447.5 96.8005C447.2 98.2005 446.8 99.6005 446.3 100.8C446 101.6 445.7 102.3 445.3 103C445.1 103.4 444.9 103.8 444.7 104.1C444.5 104.5 444.3 104.8 444 105.2C443.8 105.5 443.5 105.9 443.3 106.2C441.3 109 438.7 111.2 435.7 112.9C432.8 114.6 429.5 115.6 426 115.9L381.9 120C377.5 131.9 366.6 140.5 353.5 141.8L251.4 151.7C240.5 152.8 230.4 146.1 227.2 135.6C227.1 135.3 227 134.9 226.9 134.6L150.5 141.8C153 138.3 155.3 134.3 157.3 129.8L223.7 123.5L238.5 122.1C243 121.7 246.9 118.8 248.7 114.6C257.4 93.7005 262.3 72.9005 261 49.5005C260.4 39.7005 253.4 31.4005 243.7 29.4005L232 27.0005C232.3 26.6005 232.7 26.2005 233 25.8005C233.4 25.4005 233.7 25.0005 234.1 24.6005C234.4 24.3005 234.8 23.9005 235.1 23.6005C235.2 23.5005 235.3 23.4005 235.4 23.4005C235.8 23.1005 236.1 22.8005 236.5 22.5005C236.9 22.2005 237.3 21.8005 237.7 21.5005C238.1 21.2005 238.5 20.8005 239 20.5005C239.5 20.1005 240 19.8005 240.5 19.5005C240.8 19.3005 241.1 19.1005 241.5 18.9005C241.6 18.8005 241.7 18.8005 241.9 18.7005C242.2 18.5005 242.5 18.3005 242.8 18.2005C243 18.1005 243.1 18.0005 243.3 17.9005C243.7 17.7005 244.1 17.5005 244.4 17.3005C244.9 17.1005 245.4 16.9005 245.8 16.7005C245.8 16.7005 245.8 16.7005 245.9 16.7005C246.4 16.5005 246.8 16.3005 247.3 16.2005C247.7 16.0005 248.2 15.9005 248.6 15.8005C248.7 15.8005 248.9 15.7005 249 15.7005C249.4 15.6005 249.9 15.4005 250.3 15.3005C250.7 15.2005 251 15.1005 251.4 15.0005C251.6 14.9005 251.8 14.9005 252 14.9005C252.5 14.8005 252.9 14.7005 253.4 14.6005C253.6 14.6005 253.7 14.5005 253.9 14.5005C260.2 13.7005 264.9 17.2005 266.7 24.8005C274.4 57.4005 272.2 81.8005 256.8 120.3C255.1 124.5 258.9 129 263.4 128.6L379.1 117.8C381.1 117.6 382.7 116.2 383.2 114.3C383.5 112.9 383.9 111.3 384 109.8C384 109.7 384 109.5 384 109.4C384 109.2 384.1 109.1 384.1 108.9C384.4 107.1 384.8 105.3 385.1 103.5C385.4 101.4 385.7 99.3005 385.9 97.2005C386.3 93.0005 386.4 88.8005 386.4 84.6005C386.4 80.4005 386.1 76.2005 385.6 72.0005C385.1 67.8005 384.4 63.7005 383.2 59.6005C383.2 59.5005 383.2 59.4005 383.3 59.4005C383.4 59.4005 383.4 59.4005 383.5 59.5005C385.7 63.3005 387.1 67.5005 388 71.7005L388.4 73.3005C388.5 73.8005 388.6 74.4005 388.7 74.9005C388.8 76.0005 389 77.0005 389.1 78.1005C389.2 79.2005 389.3 80.2005 389.4 81.3005L389.5 84.5005C389.5 85.6005 389.4 86.7005 389.4 87.7005C389.4 88.8005 389.4 89.9005 389.2 90.9005L388.8 94.1005C388.7 95.2005 388.5 96.2005 388.2 97.3005C387.9 99.4005 387.2 101.5 386.7 103.6C386.2 105.4 385.5 107.1 384.7 108.7C400.8 107.8 424 106.9 439.9 106.3C455.1 79.5005 430.2 68.4005 430.2 68.4005C442.5 71.9005 450.1 84.2005 447.5 96.8005Z" fill="#004B91"/>
<path d="M126.301 157C148.944 157 167.301 121.854 167.301 78.5C167.301 35.1456 148.944 0 126.301 0C103.657 0 85.3008 35.1456 85.3008 78.5C85.3008 121.854 103.657 157 126.301 157Z" fill="#004B90"/>
<path d="M160.301 78.5C160.301 98.4 156.301 116.9 149.101 130.8C145.301 138 141.001 143.3 136.301 146.6C133.001 148.9 129.701 150.1 126.301 150.1C118.201 150.1 109.901 143.1 103.501 130.9C96.3008 117 92.3008 98.5 92.3008 78.6C92.3008 58.7 96.3008 40.2 103.501 26.3C109.901 14 118.201 7 126.301 7C129.701 7 133.001 8.2 136.301 10.5C140.901 13.7 145.301 19.1 149.101 26.3C156.401 40.1 160.301 58.6 160.301 78.5Z" fill="#002967"/>
<path d="M160.301 78.5004C160.301 93.6004 158.001 108 153.701 120.1C152.401 123.9 150.801 127.5 149.101 130.8C145.301 138 141.001 143.3 136.301 146.6C131.701 143.4 127.301 138 123.501 130.8C117.201 118.7 113.301 103 112.501 85.9004C112.401 83.5004 112.301 81.0004 112.301 78.5004C112.301 58.6004 116.301 40.1004 123.501 26.2004C127.301 19.0004 131.601 13.7004 136.301 10.4004C140.901 13.6004 145.301 19.0004 149.101 26.2004C156.401 40.1004 160.301 58.6004 160.301 78.5004Z" fill="#FFBF66"/>
<path d="M136.994 47.3319C138.781 39.923 137.097 33.161 133.231 32.2286C129.366 31.2961 124.783 36.5462 122.996 43.9551C121.209 51.364 122.893 58.126 126.759 59.0585C130.624 59.991 135.207 54.7408 136.994 47.3319Z" fill="#FEFEFE"/>
<path d="M153.7 120.1C152.4 123.9 150.8 127.5 149.1 130.8C145.3 138 141 143.3 136.3 146.6C131.7 143.4 127.3 138 123.5 130.8C117.2 118.7 113.3 103 112.5 85.9004C118.9 107.5 131.1 122 145.1 122C148.1 122 151 121.3 153.7 120.1Z" fill="#FF7F02"/>
<path d="M295.799 20.7996L301 21.8996C302.3 22.1996 302.9 23.3996 302.5 24.6996C300.7 29.8996 298.6 42.6996 314.4 53.8996C314.5 53.8996 314.5 53.9996 314.6 53.9996C316.3 55.0996 317.9 55.9996 319.5 56.6996C332.1 62.2996 346.7 57.0996 352 45.0996C357.3 33.0996 352.3 22.7996 339.7 17.2996C328 12.1996 302.7 8.29957 294.7 17.0996C293.2 18.7996 293.399 20.3996 295.799 20.7996Z" fill="#D97D56"/>
</g>
<defs>
<clipPath id="clip0">
<rect width="838.4" height="735.2" fill="white"/>
</clipPath>
</defs>
</svg>
