<svg width="21" height="18" viewBox="0 0 21 18" fill="none" xmlns="http://www.w3.org/2000/svg">
<path opacity="0.4" d="M20.4997 5.05278V12.9472C20.5044 14.2841 19.9768 15.568 19.033 16.5158C18.0892 17.4637 16.8069 17.9976 15.4687 18H5.5578C4.21724 18.0023 2.93077 17.472 1.98202 16.5258C1.03326 15.5796 0.50012 14.2953 0.500122 12.9561V5.05278C0.500852 4.46466 0.606191 3.88134 0.811227 3.33004C1.53369 1.33226 3.43157 0.000767554 5.5578 7.95159e-07H15.442C17.5942 -0.00120131 19.5105 1.36068 20.2153 3.3922C20.4108 3.92373 20.5072 4.48655 20.4997 5.05278Z" fill="#B1AFC5"/>
<path d="M20.2153 3.40108L20.1176 3.481C18.2776 4.9107 12.3222 9.69708 12.3222 9.69708C11.2866 10.5384 9.80224 10.5384 8.76667 9.69708C8.76667 9.69708 2.84679 4.91958 1.00683 3.48988L0.811279 3.33892C1.53078 1.33764 3.42933 0.00211652 5.55785 0H15.4421C17.5966 0.000105848 19.5136 1.36605 20.2153 3.40108Z" fill="#B1AFC5"/>
</svg>
