<svg width="31" height="50" viewBox="0 0 31 50" fill="none" xmlns="http://www.w3.org/2000/svg">
<path d="M28.1278 13.1548L27.8742 12.1875C28.2804 12.081 28.7099 12.2397 28.9493 12.5847C29.1888 12.9297 29.1871 13.3876 28.9452 13.7308L28.1278 13.1548ZM1.97033 17.8254C1.47088 17.5896 1.25709 16.9936 1.49282 16.4942C1.72855 15.9947 2.32453 15.781 2.82398 16.0167L1.97033 17.8254ZM23.1207 21.9967C22.8026 22.4482 22.1787 22.5563 21.7272 22.2382C21.2758 21.92 21.1677 21.2962 21.4858 20.8447L23.1207 21.9967ZM17.4919 11.9814C17.0926 11.5998 17.0782 10.9668 17.4598 10.5676C17.8414 10.1683 18.4744 10.1539 18.8737 10.5355L17.4919 11.9814ZM28.6685 13.9961C15.7777 22.2808 5.08114 19.2936 1.97033 17.8254L2.82398 16.0167C5.43267 17.2479 15.3812 20.1582 27.5871 12.3136L28.6685 13.9961ZM21.4858 20.8447L27.3104 12.5788L28.9452 13.7308L23.1207 21.9967L21.4858 20.8447ZM28.3814 14.1221C26.9643 14.4937 24.8299 14.4859 22.8311 14.1611C20.8606 13.8409 18.7326 13.1671 17.4919 11.9814L18.8737 10.5355C19.6572 11.2843 21.2713 11.8814 23.152 12.187C25.0044 12.488 26.8304 12.4612 27.8742 12.1875L28.3814 14.1221Z" fill="#FFAD00"/>
<path d="M26.0961 44.1011L25.425 44.8425C25.7364 45.1243 26.1907 45.1816 26.5622 44.9858C26.9337 44.7901 27.1434 44.383 27.087 43.9669L26.0961 44.1011ZM5.03821 27.8964C4.48633 27.8753 4.02183 28.3056 4.00073 28.8574C3.97963 29.4093 4.40991 29.8738 4.96179 29.8949L5.03821 27.8964ZM25.7296 33.9465C25.6555 33.3992 25.1517 33.0157 24.6044 33.0898C24.0571 33.164 23.6736 33.6677 23.7477 34.215L25.7296 33.9465ZM16.1171 40.2385C15.5868 40.393 15.2822 40.9481 15.4367 41.4784C15.5912 42.0086 16.1463 42.3132 16.6766 42.1587L16.1171 40.2385ZM26.9637 43.6039C19.3447 30.3088 8.47559 28.0278 5.03821 27.8964L4.96179 29.8949C7.84435 30.0051 18.0142 32.0095 25.2284 44.5983L26.9637 43.6039ZM23.7477 34.215L25.1051 44.2354L27.087 43.9669L25.7296 33.9465L23.7477 34.215ZM26.7671 43.3597C25.6809 42.3766 23.7834 41.3994 21.8599 40.7661C19.9637 40.1417 17.7648 39.7584 16.1171 40.2385L16.6766 42.1587C17.7171 41.8555 19.4246 42.0699 21.2344 42.6658C23.017 43.2527 24.625 44.1185 25.425 44.8425L26.7671 43.3597Z" fill="#FFAD00"/>
</svg>
