<svg width="196" height="205" viewBox="0 0 196 205" fill="none" xmlns="http://www.w3.org/2000/svg">
<path d="M67.4991 30.4702C195.5 18.4688 206.5 119.47 142 113.47C75.5214 100.256 108.5 75.7208 118.51 83.9924C161.587 119.586 133.501 158.142 41 158.469" stroke="#FFAD00" stroke-width="1.5" stroke-linecap="round" stroke-dasharray="5 5"/>
<path d="M45.0328 152.535C45.3512 152.27 45.8241 152.313 46.089 152.632C46.3539 152.95 46.3105 153.423 45.9921 153.688L45.0328 152.535ZM39.0692 158.472L38.6348 159.083C38.445 158.948 38.3286 158.733 38.3198 158.5C38.3109 158.268 38.4106 158.044 38.5896 157.895L39.0692 158.472ZM46.2323 162.643C46.57 162.883 46.6491 163.351 46.4092 163.688C46.1692 164.026 45.701 164.105 45.3634 163.865L46.2323 162.643ZM45.9921 153.688L39.5489 159.048L38.5896 157.895L45.0328 152.535L45.9921 153.688ZM39.5037 157.861L46.2323 162.643L45.3634 163.865L38.6348 159.083L39.5037 157.861Z" fill="#FFAD00"/>
</svg>
