<svg width="134" height="134" viewBox="0 0 134 134" fill="none" xmlns="http://www.w3.org/2000/svg">
<g filter="url(#filter0_dii)">
<rect x="13.7891" y="6.41309" width="106.211" height="106.211" rx="53.1054" fill="#FFAD00"/>
</g>
<g clip-path="url(#clip0)">
<path d="M42.8604 75.6106C42.9351 75.6106 43.0098 75.5732 43.0846 75.5732C43.0472 75.5732 42.9725 75.6106 42.9351 75.6106C42.8977 75.6106 42.8604 75.6106 42.8604 75.6106Z" fill="#00CEB0"/>
<path d="M43.084 75.535C43.1209 75.535 43.1579 75.535 43.1579 75.498C43.1579 75.535 43.1209 75.535 43.084 75.535Z" fill="#00CEB0"/>
<path d="M43.3838 75.4973C43.4585 75.4973 43.4959 75.46 43.5707 75.46C43.5333 75.46 43.4959 75.46 43.4585 75.46C43.4212 75.4973 43.3838 75.4973 43.3838 75.4973Z" fill="#00CEB0"/>
<path d="M43.5703 75.4612C43.6451 75.4612 43.7198 75.4238 43.7946 75.4238C43.7572 75.4238 43.7572 75.4238 43.7198 75.4238C43.6824 75.4612 43.6077 75.4612 43.5703 75.4612Z" fill="#00CEB0"/>
<path d="M40.3183 76.9541C40.3183 76.9164 40.3183 76.9164 40.3183 76.9541C40.3183 76.9164 40.3183 76.9164 40.3183 76.9541C40.2806 76.9541 40.2806 76.9541 40.3183 76.9541C40.2806 76.9541 40.2806 76.9541 40.3183 76.9541Z" fill="#00CEB0"/>
<path d="M40.804 76.582C40.6545 76.6942 40.505 76.8063 40.3555 76.9184C40.4302 76.881 40.505 76.8063 40.5423 76.7689C40.6171 76.6942 40.6918 76.6194 40.804 76.582Z" fill="#00CEB0"/>
<path d="M54.8579 75.4238H44.28C44.0931 75.4238 43.9062 75.4238 43.7194 75.4612C43.6446 75.4612 43.5325 75.4986 43.4577 75.4986C43.383 75.4986 43.2708 75.536 43.1961 75.536C43.1213 75.536 43.0092 75.5733 42.9344 75.6107C42.8597 75.6481 42.7475 75.6481 42.6728 75.6855C42.598 75.7228 42.4859 75.7229 42.4111 75.7602C42.4859 75.7229 42.5606 75.7228 42.6354 75.6855H42.6728C42.7475 75.6481 42.7849 75.6481 42.8597 75.6481C42.9344 75.6481 43.0092 75.6107 43.0839 75.6107H43.1213C43.1587 75.6107 43.1961 75.6107 43.1961 75.5733C43.2708 75.5733 43.3082 75.536 43.383 75.536C43.4577 75.536 43.4951 75.4986 43.5698 75.4986C43.6446 75.4986 43.7194 75.4612 43.7941 75.4612C43.8689 75.4612 43.9436 75.4612 44.0184 75.4612C44.0931 75.4612 44.2053 75.4612 44.28 75.4612H54.8579V75.4238Z" fill="#00CEB0"/>
<g filter="url(#filter1_dii)">
<path d="M54.8584 75.4238L54.0361 80.7315C53.5875 83.6469 50.8216 86.0391 47.9061 86.0391H42.5985C39.683 86.0391 37.6646 83.6469 38.1132 80.7315C38.1132 80.7315 38.1132 80.7315 38.1132 80.6941C38.3374 79.4232 38.9355 78.2645 39.8326 77.3675C39.9073 77.2927 39.9447 77.2553 40.0194 77.1806C40.0942 77.1058 40.169 77.0684 40.2437 76.9937C40.2437 76.9937 40.2437 76.9937 40.2811 76.9563L40.3185 76.9189C40.3932 76.8816 40.468 76.8068 40.5054 76.7694C40.5801 76.6947 40.6549 76.6573 40.767 76.5825C40.9539 76.433 41.1408 76.3209 41.3277 76.2461C41.4024 76.2088 41.4772 76.1714 41.5519 76.134H41.5893C41.6641 76.0966 41.7762 76.0592 41.8509 76.0219C41.9257 75.9845 42.0378 75.9471 42.15 75.9097C42.2247 75.8724 42.2995 75.835 42.4116 75.835C42.4864 75.7976 42.5611 75.7976 42.6359 75.7602H42.6733C42.748 75.7229 42.7854 75.7228 42.8601 75.7228C42.9349 75.7228 43.0097 75.6855 43.0844 75.6855H43.1218C43.1592 75.6855 43.1965 75.6855 43.1965 75.6481C43.2713 75.6481 43.3087 75.6107 43.3834 75.6107C43.4582 75.6107 43.4956 75.5733 43.5703 75.5733C43.6451 75.5733 43.7198 75.536 43.7946 75.536C43.8693 75.536 43.9441 75.536 44.0189 75.536C44.0936 75.536 44.2057 75.536 44.2805 75.536H54.8584V75.4238Z" fill="#FFDE88"/>
</g>
<g filter="url(#filter2_dii)">
<path d="M95.4497 53.0725L95.0759 55.3899C93.3565 66.4537 82.9655 75.4244 71.9017 75.4244H54.8575H44.2796C44.2049 75.4244 44.0927 75.4244 44.018 75.4244C43.9432 75.4244 43.8685 75.4244 43.7937 75.4244C43.7563 75.4244 43.7563 75.4244 43.719 75.4244C43.6816 75.4244 43.6068 75.4244 43.5694 75.4618C43.5321 75.4618 43.4947 75.4618 43.4573 75.4618C43.4199 75.4618 43.4199 75.4618 43.3826 75.4618C43.3078 75.4618 43.2704 75.4991 43.1957 75.4991C43.1583 75.4991 43.1209 75.4991 43.1209 75.5365H43.0835C43.0462 75.5365 42.9714 75.5739 42.934 75.5739C42.8966 75.5739 42.8966 75.5739 42.8593 75.5739C42.8219 75.5739 42.8219 75.5739 42.7845 75.6113C42.7471 75.6113 42.7098 75.6486 42.6724 75.6486H42.635C42.5602 75.686 42.4855 75.686 42.4107 75.7234C42.336 75.7608 42.2612 75.7982 42.1491 75.7982C42.037 75.8355 41.9622 75.8729 41.8501 75.9103C41.7753 75.9477 41.6632 75.985 41.5884 76.0224H41.5511C41.4763 76.0598 41.4015 76.0972 41.3268 76.1346C41.1399 76.2467 40.953 76.3588 40.7661 76.471C40.6914 76.5083 40.6166 76.5831 40.5419 76.6578C40.5419 76.6578 40.5419 76.6578 40.5045 76.6578C40.4297 76.6952 40.355 76.77 40.3176 76.8074L40.2802 76.8447C40.2802 76.8447 40.2428 76.8447 40.2428 76.8821C40.1681 76.9569 40.0933 76.9942 40.0186 77.069C39.9438 77.1438 39.8691 77.1811 39.8317 77.2559C38.9346 78.1529 38.2992 79.3117 38.1123 80.5825L40.2428 66.977C40.3923 66.0052 40.8035 65.1081 41.3642 64.3232C42.5229 62.7533 44.3918 61.6694 46.3728 61.6694H64.7626C68.463 61.6694 71.3411 61.1835 73.5463 60.4733C77.4336 59.2398 80.3865 56.1001 81.4704 52.1755L83.0403 46.5314L83.1898 46.0829L84.5728 41.1864C83.4141 43.0553 81.433 44.2514 79.4146 44.9989H79.3773C76.7234 46.0081 73.9949 46.3819 71.1916 46.4941C71.042 46.4941 70.8925 46.4941 70.743 46.5314C68.3882 46.6062 66.0334 46.5688 63.716 46.5314C61.436 46.5314 59.1933 46.5314 56.9133 46.5314C55.3434 46.5314 53.7736 46.5314 52.1663 46.5314H47.5689C46.4849 46.5314 45.401 46.5314 44.3544 46.5314C43.9058 46.5314 43.5321 46.1203 43.6068 45.6717L44.8403 37.8598C45.2514 35.2807 47.8305 33.0381 50.5965 33.0381H78.5923C89.6187 33.0381 97.169 42.0087 95.4497 53.0725Z" fill="white"/>
</g>
<path d="M64.7998 61.7805C68.5002 61.7805 71.3783 61.2946 73.5836 60.5845C77.4708 59.351 80.4237 56.2113 81.5076 52.2866L83.0775 46.6426H89.5812L87.4133 54.5293C86.292 58.8277 82.4047 61.7805 77.9567 61.7805H64.7998Z" fill="#FF9700" fill-opacity="0.1"/>
</g>
<defs>
<filter id="filter0_dii" x="0.336364" y="0.298223" width="133.116" height="133.116" filterUnits="userSpaceOnUse" color-interpolation-filters="sRGB">
<feFlood flood-opacity="0" result="BackgroundImageFix"/>
<feColorMatrix in="SourceAlpha" type="matrix" values="0 0 0 0 0 0 0 0 0 0 0 0 0 0 0 0 0 0 127 0"/>
<feOffset dy="7.33784"/>
<feGaussianBlur stdDeviation="6.72635"/>
<feColorMatrix type="matrix" values="0 0 0 0 0.929412 0 0 0 0 0.501961 0 0 0 0 0 0 0 0 0.4 0"/>
<feBlend mode="normal" in2="BackgroundImageFix" result="effect1_dropShadow"/>
<feBlend mode="normal" in="SourceGraphic" in2="effect1_dropShadow" result="shape"/>
<feColorMatrix in="SourceAlpha" type="matrix" values="0 0 0 0 0 0 0 0 0 0 0 0 0 0 0 0 0 0 127 0" result="hardAlpha"/>
<feOffset dy="-4.89189"/>
<feGaussianBlur stdDeviation="3.05743"/>
<feComposite in2="hardAlpha" operator="arithmetic" k2="-1" k3="1"/>
<feColorMatrix type="matrix" values="0 0 0 0 1 0 0 0 0 0.341667 0 0 0 0 0.341667 0 0 0 0.35 0"/>
<feBlend mode="normal" in2="shape" result="effect2_innerShadow"/>
<feColorMatrix in="SourceAlpha" type="matrix" values="0 0 0 0 0 0 0 0 0 0 0 0 0 0 0 0 0 0 127 0" result="hardAlpha"/>
<feOffset dy="-1.83446"/>
<feGaussianBlur stdDeviation="1.22297"/>
<feComposite in2="hardAlpha" operator="arithmetic" k2="-1" k3="1"/>
<feColorMatrix type="matrix" values="0 0 0 0 1 0 0 0 0 0.948 0 0 0 0 0.9 0 0 0 0.45 0"/>
<feBlend mode="normal" in2="effect2_innerShadow" result="effect3_innerShadow"/>
</filter>
<filter id="filter1_dii" x="28.9329" y="71.2793" width="35.0433" height="28.851" filterUnits="userSpaceOnUse" color-interpolation-filters="sRGB">
<feFlood flood-opacity="0" result="BackgroundImageFix"/>
<feColorMatrix in="SourceAlpha" type="matrix" values="0 0 0 0 0 0 0 0 0 0 0 0 0 0 0 0 0 0 127 0"/>
<feOffset dy="4.97338"/>
<feGaussianBlur stdDeviation="4.55893"/>
<feColorMatrix type="matrix" values="0 0 0 0 0.894118 0 0 0 0 0 0 0 0 0 0 0 0 0 0.25 0"/>
<feBlend mode="normal" in2="BackgroundImageFix" result="effect1_dropShadow"/>
<feBlend mode="normal" in="SourceGraphic" in2="effect1_dropShadow" result="shape"/>
<feColorMatrix in="SourceAlpha" type="matrix" values="0 0 0 0 0 0 0 0 0 0 0 0 0 0 0 0 0 0 127 0" result="hardAlpha"/>
<feOffset dy="-3.31559"/>
<feGaussianBlur stdDeviation="2.07224"/>
<feComposite in2="hardAlpha" operator="arithmetic" k2="-1" k3="1"/>
<feColorMatrix type="matrix" values="0 0 0 0 1 0 0 0 0 0.941176 0 0 0 0 0.85098 0 0 0 1 0"/>
<feBlend mode="normal" in2="shape" result="effect2_innerShadow"/>
<feColorMatrix in="SourceAlpha" type="matrix" values="0 0 0 0 0 0 0 0 0 0 0 0 0 0 0 0 0 0 127 0" result="hardAlpha"/>
<feOffset dy="-1.24335"/>
<feGaussianBlur stdDeviation="0.828897"/>
<feComposite in2="hardAlpha" operator="arithmetic" k2="-1" k3="1"/>
<feColorMatrix type="matrix" values="0 0 0 0 1 0 0 0 0 1 0 0 0 0 1 0 0 0 0.75 0"/>
<feBlend mode="normal" in2="effect2_innerShadow" result="effect3_innerShadow"/>
</filter>
<filter id="filter2_dii" x="28.9944" y="28.8936" width="75.8171" height="65.7801" filterUnits="userSpaceOnUse" color-interpolation-filters="sRGB">
<feFlood flood-opacity="0" result="BackgroundImageFix"/>
<feColorMatrix in="SourceAlpha" type="matrix" values="0 0 0 0 0 0 0 0 0 0 0 0 0 0 0 0 0 0 127 0"/>
<feOffset dy="4.97338"/>
<feGaussianBlur stdDeviation="4.55893"/>
<feColorMatrix type="matrix" values="0 0 0 0 0.895833 0 0 0 0 0 0 0 0 0 0 0 0 0 0.25 0"/>
<feBlend mode="normal" in2="BackgroundImageFix" result="effect1_dropShadow"/>
<feBlend mode="normal" in="SourceGraphic" in2="effect1_dropShadow" result="shape"/>
<feColorMatrix in="SourceAlpha" type="matrix" values="0 0 0 0 0 0 0 0 0 0 0 0 0 0 0 0 0 0 127 0" result="hardAlpha"/>
<feOffset dy="-3.31559"/>
<feGaussianBlur stdDeviation="2.07224"/>
<feComposite in2="hardAlpha" operator="arithmetic" k2="-1" k3="1"/>
<feColorMatrix type="matrix" values="0 0 0 0 1 0 0 0 0 0.941176 0 0 0 0 0.85098 0 0 0 1 0"/>
<feBlend mode="normal" in2="shape" result="effect2_innerShadow"/>
<feColorMatrix in="SourceAlpha" type="matrix" values="0 0 0 0 0 0 0 0 0 0 0 0 0 0 0 0 0 0 127 0" result="hardAlpha"/>
<feOffset dy="-1.24335"/>
<feGaussianBlur stdDeviation="0.828897"/>
<feComposite in2="hardAlpha" operator="arithmetic" k2="-1" k3="1"/>
<feColorMatrix type="matrix" values="0 0 0 0 1 0 0 0 0 1 0 0 0 0 1 0 0 0 0.75 0"/>
<feBlend mode="normal" in2="effect2_innerShadow" result="effect3_innerShadow"/>
</filter>
<clipPath id="clip0">
<rect width="66.7049" height="69.2221" fill="white" transform="translate(33.584 32.8975)"/>
</clipPath>
</defs>
</svg>
