<svg width="75" height="75" viewBox="0 0 75 75" fill="none" xmlns="http://www.w3.org/2000/svg">
<g filter="url(#filter0_ii)">
<rect x="0.106445" y="0.108398" width="74.1844" height="74.1844" rx="37.0922" fill="url(#paint0_linear)"/>
<rect x="0.106445" y="0.108398" width="74.1844" height="74.1844" rx="37.0922" fill="url(#paint1_linear)" fill-opacity="0.2" style="mix-blend-mode:soft-light"/>
</g>
<g clip-path="url(#clip0)">
<path d="M20.4116 48.4392C20.4638 48.4392 20.516 48.4131 20.5683 48.4131C20.5422 48.4131 20.4899 48.4392 20.4638 48.4392C20.4377 48.4392 20.4116 48.4392 20.4116 48.4392Z" fill="#00CEB0"/>
<path d="M20.5684 48.3874C20.5945 48.3874 20.6206 48.3874 20.6206 48.3613C20.6206 48.3874 20.5945 48.3874 20.5684 48.3874Z" fill="#00CEB0"/>
<path d="M20.7773 48.3611C20.8296 48.3611 20.8557 48.335 20.9079 48.335C20.8818 48.335 20.8557 48.335 20.8296 48.335C20.8035 48.3611 20.7773 48.3611 20.7773 48.3611Z" fill="#00CEB0"/>
<path d="M20.9082 48.3357C20.9604 48.3357 21.0126 48.3096 21.0648 48.3096C21.0387 48.3096 21.0387 48.3096 21.0126 48.3096C20.9865 48.3357 20.9343 48.3357 20.9082 48.3357Z" fill="#00CEB0"/>
<path d="M18.6362 49.3784C18.6362 49.353 18.6362 49.353 18.6362 49.3784C18.6362 49.353 18.6362 49.353 18.6362 49.3784C18.6108 49.3784 18.6108 49.3784 18.6362 49.3784C18.6108 49.3784 18.6108 49.3784 18.6362 49.3784Z" fill="#00CEB0"/>
<path d="M18.9759 49.1182C18.8715 49.1965 18.767 49.2748 18.6626 49.3531C18.7148 49.327 18.767 49.2748 18.7931 49.2487C18.8453 49.1965 18.8976 49.1443 18.9759 49.1182Z" fill="#00CEB0"/>
<path d="M28.7923 48.3096H21.404C21.2734 48.3096 21.1429 48.3096 21.0124 48.3357C20.9602 48.3357 20.8818 48.3618 20.8296 48.3618C20.7774 48.3618 20.6991 48.3879 20.6469 48.3879C20.5947 48.3879 20.5163 48.414 20.4641 48.4401C20.4119 48.4662 20.3336 48.4662 20.2814 48.4923C20.2292 48.5184 20.1508 48.5184 20.0986 48.5445C20.1508 48.5184 20.2031 48.5184 20.2553 48.4923H20.2814C20.3336 48.4662 20.3597 48.4662 20.4119 48.4662C20.4641 48.4662 20.5163 48.4401 20.5686 48.4401H20.5947C20.6208 48.4401 20.6469 48.4401 20.6469 48.414C20.6991 48.414 20.7252 48.3879 20.7774 48.3879C20.8296 48.3879 20.8557 48.3618 20.9079 48.3618C20.9602 48.3618 21.0124 48.3357 21.0646 48.3357C21.1168 48.3357 21.169 48.3357 21.2212 48.3357C21.2734 48.3357 21.3518 48.3357 21.404 48.3357H28.7923V48.3096Z" fill="#00CEB0"/>
<g filter="url(#filter1_i)">
<path d="M28.7922 48.3096L28.2179 52.0168C27.9046 54.0531 25.9727 55.7239 23.9363 55.7239H20.2292C18.1928 55.7239 16.783 54.0531 17.0963 52.0168C17.0963 52.0168 17.0963 52.0168 17.0963 51.9907C17.253 51.103 17.6707 50.2937 18.2972 49.6671C18.3495 49.6149 18.3756 49.5888 18.4278 49.5366C18.48 49.4844 18.5322 49.4583 18.5844 49.4061C18.5844 49.4061 18.5844 49.4061 18.6105 49.38L18.6366 49.3538C18.6888 49.3277 18.7411 49.2755 18.7672 49.2494C18.8194 49.1972 18.8716 49.1711 18.9499 49.1189C19.0804 49.0145 19.211 48.9361 19.3415 48.8839C19.3937 48.8578 19.4459 48.8317 19.4982 48.8056H19.5243C19.5765 48.7795 19.6548 48.7534 19.707 48.7273C19.7592 48.7012 19.8375 48.6751 19.9159 48.649C19.9681 48.6229 20.0203 48.5967 20.0986 48.5967C20.1508 48.5706 20.203 48.5706 20.2553 48.5445H20.2814C20.3336 48.5184 20.3597 48.5184 20.4119 48.5184C20.4641 48.5184 20.5163 48.4923 20.5685 48.4923H20.5946C20.6208 48.4923 20.6469 48.4923 20.6469 48.4662C20.6991 48.4662 20.7252 48.4401 20.7774 48.4401C20.8296 48.4401 20.8557 48.414 20.9079 48.414C20.9601 48.414 21.0124 48.3879 21.0646 48.3879C21.1168 48.3879 21.169 48.3879 21.2212 48.3879C21.2734 48.3879 21.3517 48.3879 21.404 48.3879H28.7922V48.3096Z" fill="#FF7F00"/>
</g>
<g filter="url(#filter2_ii)">
<path d="M57.1438 32.6974L56.8827 34.3161C55.6818 42.0437 48.424 48.3094 40.6964 48.3094H28.7916H21.4034C21.3511 48.3094 21.2728 48.3094 21.2206 48.3094C21.1684 48.3094 21.1162 48.3094 21.064 48.3094C21.0379 48.3094 21.0379 48.3094 21.0117 48.3094C20.9856 48.3094 20.9334 48.3094 20.9073 48.3355C20.8812 48.3355 20.8551 48.3355 20.829 48.3355C20.8029 48.3355 20.8029 48.3355 20.7768 48.3355C20.7246 48.3355 20.6985 48.3616 20.6462 48.3616C20.6201 48.3616 20.594 48.3616 20.594 48.3877H20.5679C20.5418 48.3877 20.4896 48.4138 20.4635 48.4138C20.4374 48.4138 20.4374 48.4138 20.4113 48.4138C20.3852 48.4138 20.3852 48.4138 20.3591 48.4399C20.333 48.4399 20.3069 48.466 20.2808 48.466H20.2546C20.2024 48.4921 20.1502 48.4921 20.098 48.5182C20.0458 48.5443 19.9936 48.5705 19.9153 48.5705C19.8369 48.5966 19.7847 48.6227 19.7064 48.6488C19.6542 48.6749 19.5759 48.701 19.5236 48.7271H19.4975C19.4453 48.7532 19.3931 48.7793 19.3409 48.8054C19.2104 48.8837 19.0798 48.9621 18.9493 49.0404C18.8971 49.0665 18.8449 49.1187 18.7927 49.1709C18.7927 49.1709 18.7927 49.1709 18.7665 49.1709C18.7143 49.197 18.6621 49.2492 18.636 49.2753L18.6099 49.3015C18.6099 49.3015 18.5838 49.3015 18.5838 49.3276C18.5316 49.3798 18.4794 49.4059 18.4272 49.4581C18.3749 49.5103 18.3227 49.5364 18.2966 49.5886C17.6701 50.2152 17.2262 51.0245 17.0957 51.9121L18.5838 42.4092C18.6882 41.7304 18.9754 41.1039 19.367 40.5556C20.1763 39.4591 21.4817 38.702 22.8653 38.702H35.71C38.2945 38.702 40.3048 38.3626 41.8451 37.8666C44.5602 37.0051 46.6227 34.8121 47.3798 32.0709L48.4763 28.1287L48.5807 27.8154L49.5466 24.3954C48.7373 25.7008 47.3537 26.5362 45.9439 27.0583H45.9178C44.0642 27.7632 42.1584 28.0243 40.2004 28.1026C40.0959 28.1026 39.9915 28.1026 39.8871 28.1287C38.2423 28.1809 36.5976 28.1548 34.979 28.1287C33.3864 28.1287 31.82 28.1287 30.2275 28.1287C29.131 28.1287 28.0345 28.1287 26.9119 28.1287H23.7008C22.9437 28.1287 22.1866 28.1287 21.4556 28.1287C21.1423 28.1287 20.8812 27.8415 20.9334 27.5283L21.795 22.0719C22.0821 20.2705 23.8835 18.7041 25.8154 18.7041H45.3695C53.0711 18.7041 58.3447 24.9698 57.1438 32.6974Z" fill="#FFAD00"/>
</g>
<path d="M35.7368 38.7803C38.3214 38.7803 40.3316 38.441 41.872 37.9449C44.5871 37.0834 46.6495 34.8904 47.4066 32.1492L48.5031 28.207H53.0457L51.5315 33.7156C50.7483 36.7179 48.0332 38.7803 44.9265 38.7803H35.7368Z" fill="#FF9700"/>
</g>
<defs>
<filter id="filter0_ii" x="-0.472509" y="-0.470556" width="75.3423" height="75.3423" filterUnits="userSpaceOnUse" color-interpolation-filters="sRGB">
<feFlood flood-opacity="0" result="BackgroundImageFix"/>
<feBlend mode="normal" in="SourceGraphic" in2="BackgroundImageFix" result="shape"/>
<feColorMatrix in="SourceAlpha" type="matrix" values="0 0 0 0 0 0 0 0 0 0 0 0 0 0 0 0 0 0 127 0" result="hardAlpha"/>
<feOffset dx="0.578955" dy="0.578955"/>
<feGaussianBlur stdDeviation="0.289477"/>
<feComposite in2="hardAlpha" operator="arithmetic" k2="-1" k3="1"/>
<feColorMatrix type="matrix" values="0 0 0 0 1 0 0 0 0 1 0 0 0 0 1 0 0 0 0.2 0"/>
<feBlend mode="normal" in2="shape" result="effect1_innerShadow"/>
<feColorMatrix in="SourceAlpha" type="matrix" values="0 0 0 0 0 0 0 0 0 0 0 0 0 0 0 0 0 0 127 0" result="hardAlpha"/>
<feOffset dx="-0.578955" dy="-0.578955"/>
<feGaussianBlur stdDeviation="0.289477"/>
<feComposite in2="hardAlpha" operator="arithmetic" k2="-1" k3="1"/>
<feColorMatrix type="matrix" values="0 0 0 0 0 0 0 0 0 0 0 0 0 0 0 0 0 0 0.05 0"/>
<feBlend mode="normal" in2="effect1_innerShadow" result="effect2_innerShadow"/>
</filter>
<filter id="filter1_i" x="17.0527" y="47.0283" width="11.7395" height="8.69568" filterUnits="userSpaceOnUse" color-interpolation-filters="sRGB">
<feFlood flood-opacity="0" result="BackgroundImageFix"/>
<feBlend mode="normal" in="SourceGraphic" in2="BackgroundImageFix" result="shape"/>
<feColorMatrix in="SourceAlpha" type="matrix" values="0 0 0 0 0 0 0 0 0 0 0 0 0 0 0 0 0 0 127 0" result="hardAlpha"/>
<feOffset dy="-1.2813"/>
<feGaussianBlur stdDeviation="0.854202"/>
<feComposite in2="hardAlpha" operator="arithmetic" k2="-1" k3="1"/>
<feColorMatrix type="matrix" values="0 0 0 0 1 0 0 0 0 0.948 0 0 0 0 0.9 0 0 0 0.45 0"/>
<feBlend mode="normal" in2="shape" result="effect1_innerShadow"/>
</filter>
<filter id="filter2_ii" x="17.0957" y="15.2873" width="40.2185" height="36.6249" filterUnits="userSpaceOnUse" color-interpolation-filters="sRGB">
<feFlood flood-opacity="0" result="BackgroundImageFix"/>
<feBlend mode="normal" in="SourceGraphic" in2="BackgroundImageFix" result="shape"/>
<feColorMatrix in="SourceAlpha" type="matrix" values="0 0 0 0 0 0 0 0 0 0 0 0 0 0 0 0 0 0 127 0" result="hardAlpha"/>
<feOffset dy="-3.41681"/>
<feGaussianBlur stdDeviation="2.13551"/>
<feComposite in2="hardAlpha" operator="arithmetic" k2="-1" k3="1"/>
<feColorMatrix type="matrix" values="0 0 0 0 1 0 0 0 0 0.341667 0 0 0 0 0.341667 0 0 0 0.35 0"/>
<feBlend mode="normal" in2="shape" result="effect1_innerShadow"/>
<feColorMatrix in="SourceAlpha" type="matrix" values="0 0 0 0 0 0 0 0 0 0 0 0 0 0 0 0 0 0 127 0" result="hardAlpha"/>
<feOffset dy="-1.2813"/>
<feGaussianBlur stdDeviation="0.854202"/>
<feComposite in2="hardAlpha" operator="arithmetic" k2="-1" k3="1"/>
<feColorMatrix type="matrix" values="0 0 0 0 1 0 0 0 0 0.948 0 0 0 0 0.9 0 0 0 0.45 0"/>
<feBlend mode="normal" in2="effect1_innerShadow" result="effect2_innerShadow"/>
</filter>
<linearGradient id="paint0_linear" x1="37.1986" y1="0.108398" x2="37.1986" y2="74.2928" gradientUnits="userSpaceOnUse">
<stop stop-color="white"/>
<stop offset="1" stop-color="#FFF0D9"/>
</linearGradient>
<linearGradient id="paint1_linear" x1="37.1986" y1="0.108398" x2="37.1986" y2="74.2928" gradientUnits="userSpaceOnUse">
<stop offset="0.328125" stop-color="white"/>
<stop offset="1" stop-opacity="0.1"/>
</linearGradient>
<clipPath id="clip0">
<rect width="40.2569" height="36.9936" fill="white" transform="translate(17.0703 18.7041)"/>
</clipPath>
</defs>
</svg>
