<svg width="134" height="134" viewBox="0 0 134 134" fill="none" xmlns="http://www.w3.org/2000/svg">
<g filter="url(#filter0_dii)">
<rect x="14" y="6.17285" width="106.264" height="106.264" rx="53.1321" fill="#FFAD00"/>
</g>
<g filter="url(#filter1_d)">
<g filter="url(#filter2_dii)">
<path d="M94.5653 44.3459C94.5996 44.8163 94.4495 45.2816 94.1469 45.6434C93.8443 46.0052 93.4129 46.2351 92.9438 46.2845H49.0522C45.6628 46.2845 42.9561 49.7105 42.9561 53.9533C42.9561 58.1962 45.6993 61.6222 49.0522 61.6222H81.3491C82.1072 61.705 82.8014 62.0854 83.2792 62.6798C83.757 63.2742 83.9793 64.0339 83.8972 64.7921V64.7921C83.9691 65.5444 83.7421 66.2947 83.2653 66.881C82.7885 67.4673 82.1002 67.8424 81.3491 67.9255H46.4918C43.0902 67.9255 40.091 65.6943 38.3719 62.3293C38.2622 62.1098 38.1646 61.8904 38.0671 61.6709C37.2521 59.7895 36.8369 57.7593 36.8479 55.709C36.8388 53.812 37.1862 51.9302 37.872 50.1616L38.2378 49.3447L39.5667 46.3089L44.6874 34.5191L44.8215 34.2265C45.1805 33.3063 45.7967 32.5089 46.5966 31.9295C47.3966 31.3501 48.3464 31.0132 49.3326 30.959H86.8112C87.4861 31.0043 88.1343 31.2403 88.6804 31.6396C89.2265 32.0389 89.6479 32.5851 89.8958 33.2145V33.3364L94.2484 43.3462L94.3947 43.651C94.4834 43.8736 94.5408 44.1075 94.5653 44.3459V44.3459Z" fill="white"/>
</g>
<g filter="url(#filter3_dii)">
<path d="M39.7001 74.312C39.666 73.8429 39.8164 73.3791 40.1193 73.0193C40.4222 72.6594 40.8536 72.4321 41.3216 72.3857H85.2132C88.6026 72.3857 91.3093 68.9475 91.3093 64.7168C91.3093 60.4862 88.5661 57.048 85.2132 57.048H52.9163C52.1652 56.965 51.4769 56.5898 51.0001 56.0035C50.5233 55.4172 50.2963 54.6669 50.3682 53.9146V53.9146C50.2963 53.1624 50.5233 52.412 51.0001 51.8258C51.4769 51.2395 52.1652 50.8643 52.9163 50.7812H87.7736C91.1752 50.7812 94.1744 53.0124 95.8935 56.3896C96.0033 56.5969 96.1008 56.8163 96.1983 57.048C97.0157 58.9287 97.431 60.9594 97.4175 63.0099C97.4156 64.8703 97.0683 66.714 96.3934 68.4476L96.0276 69.2645L94.6987 72.3125L89.578 84.0901L89.4439 84.3949C89.0844 85.3137 88.4676 86.1093 87.6676 86.6867C86.8675 87.264 85.9181 87.5985 84.9328 87.6502H47.4542C46.7928 87.6155 46.1541 87.3976 45.6094 87.0208C45.0647 86.644 44.6355 86.1232 44.3696 85.5166V85.4069L39.9683 75.3484L39.822 75.0314C39.7455 74.7991 39.7044 74.5566 39.7001 74.312V74.312Z" fill="white"/>
</g>
</g>
<defs>
<filter id="filter0_dii" x="0.547301" y="0.0579886" width="133.17" height="133.17" filterUnits="userSpaceOnUse" color-interpolation-filters="sRGB">
<feFlood flood-opacity="0" result="BackgroundImageFix"/>
<feColorMatrix in="SourceAlpha" type="matrix" values="0 0 0 0 0 0 0 0 0 0 0 0 0 0 0 0 0 0 127 0"/>
<feOffset dy="7.33784"/>
<feGaussianBlur stdDeviation="6.72635"/>
<feColorMatrix type="matrix" values="0 0 0 0 0.929412 0 0 0 0 0.501961 0 0 0 0 0 0 0 0 0.3 0"/>
<feBlend mode="normal" in2="BackgroundImageFix" result="effect1_dropShadow"/>
<feBlend mode="normal" in="SourceGraphic" in2="effect1_dropShadow" result="shape"/>
<feColorMatrix in="SourceAlpha" type="matrix" values="0 0 0 0 0 0 0 0 0 0 0 0 0 0 0 0 0 0 127 0" result="hardAlpha"/>
<feOffset dy="-4.89189"/>
<feGaussianBlur stdDeviation="3.05743"/>
<feComposite in2="hardAlpha" operator="arithmetic" k2="-1" k3="1"/>
<feColorMatrix type="matrix" values="0 0 0 0 1 0 0 0 0 0.341667 0 0 0 0 0.341667 0 0 0 0.35 0"/>
<feBlend mode="normal" in2="shape" result="effect2_innerShadow"/>
<feColorMatrix in="SourceAlpha" type="matrix" values="0 0 0 0 0 0 0 0 0 0 0 0 0 0 0 0 0 0 127 0" result="hardAlpha"/>
<feOffset dy="-1.83446"/>
<feGaussianBlur stdDeviation="1.22297"/>
<feComposite in2="hardAlpha" operator="arithmetic" k2="-1" k3="1"/>
<feColorMatrix type="matrix" values="0 0 0 0 1 0 0 0 0 0.948 0 0 0 0 0.9 0 0 0 0.45 0"/>
<feBlend mode="normal" in2="effect2_innerShadow" result="effect3_innerShadow"/>
</filter>
<filter id="filter1_d" x="27.0908" y="19.2637" width="80.0831" height="80.4124" filterUnits="userSpaceOnUse" color-interpolation-filters="sRGB">
<feFlood flood-opacity="0" result="BackgroundImageFix"/>
<feColorMatrix in="SourceAlpha" type="matrix" values="0 0 0 0 0 0 0 0 0 0 0 0 0 0 0 0 0 0 127 0"/>
<feOffset dy="0.329294"/>
<feColorMatrix type="matrix" values="0 0 0 0 0.929167 0 0 0 0 0.50175 0 0 0 0 0 0 0 0 0.15 0"/>
<feBlend mode="normal" in2="BackgroundImageFix" result="effect1_dropShadow"/>
<feBlend mode="normal" in="SourceGraphic" in2="effect1_dropShadow" result="shape"/>
</filter>
<filter id="filter2_dii" x="27.7298" y="26.8145" width="75.9582" height="55.2022" filterUnits="userSpaceOnUse" color-interpolation-filters="sRGB">
<feFlood flood-opacity="0" result="BackgroundImageFix"/>
<feColorMatrix in="SourceAlpha" type="matrix" values="0 0 0 0 0 0 0 0 0 0 0 0 0 0 0 0 0 0 127 0"/>
<feOffset dy="4.97338"/>
<feGaussianBlur stdDeviation="4.55893"/>
<feColorMatrix type="matrix" values="0 0 0 0 0.45 0 0 0 0 0 0 0 0 0 0 0 0 0 0.25 0"/>
<feBlend mode="normal" in2="BackgroundImageFix" result="effect1_dropShadow"/>
<feBlend mode="normal" in="SourceGraphic" in2="effect1_dropShadow" result="shape"/>
<feColorMatrix in="SourceAlpha" type="matrix" values="0 0 0 0 0 0 0 0 0 0 0 0 0 0 0 0 0 0 127 0" result="hardAlpha"/>
<feOffset dy="-3.31559"/>
<feGaussianBlur stdDeviation="2.07224"/>
<feComposite in2="hardAlpha" operator="arithmetic" k2="-1" k3="1"/>
<feColorMatrix type="matrix" values="0 0 0 0 1 0 0 0 0 0.941176 0 0 0 0 0.85098 0 0 0 1 0"/>
<feBlend mode="normal" in2="shape" result="effect2_innerShadow"/>
<feColorMatrix in="SourceAlpha" type="matrix" values="0 0 0 0 0 0 0 0 0 0 0 0 0 0 0 0 0 0 127 0" result="hardAlpha"/>
<feOffset dy="-1.24335"/>
<feGaussianBlur stdDeviation="0.828897"/>
<feComposite in2="hardAlpha" operator="arithmetic" k2="-1" k3="1"/>
<feColorMatrix type="matrix" values="0 0 0 0 1 0 0 0 0 1 0 0 0 0 1 0 0 0 0.75 0"/>
<feBlend mode="normal" in2="effect2_innerShadow" result="effect3_innerShadow"/>
</filter>
<filter id="filter3_dii" x="30.5774" y="46.6368" width="75.9583" height="55.1047" filterUnits="userSpaceOnUse" color-interpolation-filters="sRGB">
<feFlood flood-opacity="0" result="BackgroundImageFix"/>
<feColorMatrix in="SourceAlpha" type="matrix" values="0 0 0 0 0 0 0 0 0 0 0 0 0 0 0 0 0 0 127 0"/>
<feOffset dy="4.97338"/>
<feGaussianBlur stdDeviation="4.55893"/>
<feColorMatrix type="matrix" values="0 0 0 0 0.45 0 0 0 0 0 0 0 0 0 0 0 0 0 0.25 0"/>
<feBlend mode="normal" in2="BackgroundImageFix" result="effect1_dropShadow"/>
<feBlend mode="normal" in="SourceGraphic" in2="effect1_dropShadow" result="shape"/>
<feColorMatrix in="SourceAlpha" type="matrix" values="0 0 0 0 0 0 0 0 0 0 0 0 0 0 0 0 0 0 127 0" result="hardAlpha"/>
<feOffset dy="-3.31559"/>
<feGaussianBlur stdDeviation="2.07224"/>
<feComposite in2="hardAlpha" operator="arithmetic" k2="-1" k3="1"/>
<feColorMatrix type="matrix" values="0 0 0 0 1 0 0 0 0 0.941176 0 0 0 0 0.85098 0 0 0 1 0"/>
<feBlend mode="normal" in2="shape" result="effect2_innerShadow"/>
<feColorMatrix in="SourceAlpha" type="matrix" values="0 0 0 0 0 0 0 0 0 0 0 0 0 0 0 0 0 0 127 0" result="hardAlpha"/>
<feOffset dy="-1.24335"/>
<feGaussianBlur stdDeviation="0.828897"/>
<feComposite in2="hardAlpha" operator="arithmetic" k2="-1" k3="1"/>
<feColorMatrix type="matrix" values="0 0 0 0 1 0 0 0 0 1 0 0 0 0 1 0 0 0 0.75 0"/>
<feBlend mode="normal" in2="effect2_innerShadow" result="effect3_innerShadow"/>
</filter>
</defs>
</svg>
