<svg width="29" height="25" viewBox="0 0 29 25" fill="none" xmlns="http://www.w3.org/2000/svg">
<path d="M14.6062 7.03126L11.4738 17.4377L9.94245 22.5887C9.76843 23.1456 9.38559 23.6676 8.93313 24.0157C8.82872 24.0853 8.72431 24.1549 8.61989 24.2245C8.20225 24.5029 7.71499 24.6421 7.22773 24.6421H1.55466C0.40612 24.6421 -0.255158 23.7024 0.0928832 22.5539L4.75664 6.99645C5.10468 5.84791 6.32282 4.9082 7.47136 4.9082H13.1444C14.293 4.94301 14.9542 5.88272 14.6062 7.03126Z" fill="#00ADFF"/>
<path opacity="0.8" d="M11.4738 17.4375L9.94245 22.5885C9.76842 23.1454 9.38558 23.6674 8.93313 24.0155L5.87036 19.7346L11.4738 17.4375Z" fill="#0091FF"/>
<path d="M28.5627 9.84957C27.7622 12.5643 25.9175 15.0354 23.5857 16.8104C21.2538 18.5854 18.4695 19.6991 15.7547 19.6991H5.87036L6.49684 17.6109L8.34145 11.4854L11.1606 2.08825C11.5086 0.939712 12.7268 0 13.8753 0H21.6714C27.1009 0 30.1984 4.42012 28.5627 9.84957Z" fill="#FFAD00"/>
</svg>
